<?xml version="1.0" standalone="no"?>
<mlt LC_NUMERIC="C" version="7.33.0" title="Shotcut version 25.05.11" producer="main_bin">
  <profile description="HD 1080p 25 fps" width="1280" height="720" progressive="1" sample_aspect_num="1" sample_aspect_den="1" display_aspect_num="16" display_aspect_den="9" frame_rate_num="60" frame_rate_den="1" colorspace="709"/>
  <chain id="chain0" out="00:02:26.017">
    <property name="length">00:02:26.033</property>
    <property name="eof">pause</property>
    <property name="resource">/home/kactuz/Documents/Github/Projekt-Systemutveckling/Shotcut - Trailer/Assets/Gameplay/Boulder event, beginer gameplay.webm</property>
    <property name="mlt_service">avformat-novalidate</property>
    <property name="meta.media.nb_streams">1</property>
    <property name="meta.media.0.stream.type">video</property>
    <property name="meta.media.0.stream.frame_rate">29.9167</property>
    <property name="meta.media.0.stream.sample_aspect_ratio">1</property>
    <property name="meta.media.0.codec.width">1280</property>
    <property name="meta.media.0.codec.height">724</property>
    <property name="meta.media.0.codec.rotate">0</property>
    <property name="meta.media.0.codec.pix_fmt">yuv420p</property>
    <property name="meta.media.0.codec.sample_aspect_ratio">0</property>
    <property name="meta.media.0.codec.colorspace">709</property>
    <property name="meta.media.0.codec.color_trc">1</property>
    <property name="meta.media.0.codec.name">libvpx</property>
    <property name="meta.media.0.codec.long_name">libvpx VP8</property>
    <property name="meta.media.0.codec.bit_rate">0</property>
    <property name="meta.attr.0.stream.language.markup">eng</property>
    <property name="meta.attr.0.stream.title.markup">Video</property>
    <property name="meta.attr.encoder.markup">GStreamer matroskamux version 1.24.2</property>
    <property name="meta.attr.creation_time.markup">2025-06-02T09:45:15.768499Z</property>
    <property name="seekable">1</property>
    <property name="meta.media.sample_aspect_num">1</property>
    <property name="meta.media.sample_aspect_den">1</property>
    <property name="audio_index">-1</property>
    <property name="video_index">0</property>
    <property name="creation_time">2025-06-02T09:45:15</property>
    <property name="vstream">0</property>
    <property name="meta.media.frame_rate_num">359</property>
    <property name="meta.media.frame_rate_den">12</property>
    <property name="meta.media.colorspace">709</property>
    <property name="meta.media.color_trc">1</property>
    <property name="meta.media.has_b_frames">0</property>
    <property name="meta.media.width">1280</property>
    <property name="meta.media.height">724</property>
    <property name="meta.media.aspect_ratio">1</property>
    <property name="meta.media.color_range">mpeg</property>
    <property name="shotcut:skipConvert">1</property>
    <property name="shotcut:bins">Gameplay</property>
    <property name="xml">was here</property>
    <property name="shotcut:hash">7068d669fd7ea20345aeb45419250ba9</property>
  </chain>
  <chain id="chain1" out="00:06:17.683">
    <property name="length">00:06:17.700</property>
    <property name="eof">pause</property>
    <property name="resource">/home/kactuz/Documents/Github/Projekt-Systemutveckling/Shotcut - Trailer/Assets/Gameplay/Long gameplay - Eventfull ending.webm</property>
    <property name="mlt_service">avformat-novalidate</property>
    <property name="meta.media.nb_streams">1</property>
    <property name="meta.media.0.stream.type">video</property>
    <property name="meta.media.0.stream.frame_rate">29.6667</property>
    <property name="meta.media.0.stream.sample_aspect_ratio">1</property>
    <property name="meta.media.0.codec.width">1280</property>
    <property name="meta.media.0.codec.height">724</property>
    <property name="meta.media.0.codec.rotate">0</property>
    <property name="meta.media.0.codec.pix_fmt">yuv420p</property>
    <property name="meta.media.0.codec.sample_aspect_ratio">0</property>
    <property name="meta.media.0.codec.colorspace">709</property>
    <property name="meta.media.0.codec.color_trc">1</property>
    <property name="meta.media.0.codec.name">libvpx</property>
    <property name="meta.media.0.codec.long_name">libvpx VP8</property>
    <property name="meta.media.0.codec.bit_rate">0</property>
    <property name="meta.attr.0.stream.language.markup">eng</property>
    <property name="meta.attr.0.stream.title.markup">Video</property>
    <property name="meta.attr.encoder.markup">GStreamer matroskamux version 1.24.2</property>
    <property name="meta.attr.creation_time.markup">2025-06-02T09:52:30.011302Z</property>
    <property name="seekable">1</property>
    <property name="meta.media.sample_aspect_num">1</property>
    <property name="meta.media.sample_aspect_den">1</property>
    <property name="audio_index">-1</property>
    <property name="video_index">0</property>
    <property name="creation_time">2025-06-02T09:52:30</property>
    <property name="vstream">0</property>
    <property name="meta.media.frame_rate_num">89</property>
    <property name="meta.media.frame_rate_den">3</property>
    <property name="meta.media.colorspace">709</property>
    <property name="meta.media.color_trc">1</property>
    <property name="meta.media.has_b_frames">0</property>
    <property name="meta.media.width">1280</property>
    <property name="meta.media.height">724</property>
    <property name="meta.media.aspect_ratio">1</property>
    <property name="meta.media.color_range">mpeg</property>
    <property name="shotcut:skipConvert">1</property>
    <property name="shotcut:bins">Gameplay</property>
    <property name="xml">was here</property>
    <property name="shotcut:hash">878d1e9e489e0f98ec833769031bd8f2</property>
  </chain>
  <chain id="chain2" out="00:01:12.683">
    <property name="length">00:01:12.700</property>
    <property name="eof">pause</property>
    <property name="resource">/home/kactuz/Documents/Github/Projekt-Systemutveckling/Shotcut - Trailer/Assets/Songs/beethoven-concert-nr3-relaxing-classical-piano-216328.mp3</property>
    <property name="mlt_service">avformat-novalidate</property>
    <property name="meta.media.nb_streams">1</property>
    <property name="meta.media.0.stream.type">audio</property>
    <property name="meta.media.0.codec.sample_fmt">fltp</property>
    <property name="meta.media.0.codec.sample_rate">48000</property>
    <property name="meta.media.0.codec.channels">2</property>
    <property name="meta.media.0.codec.layout">stereo</property>
    <property name="meta.media.0.codec.name">mp3float</property>
    <property name="meta.media.0.codec.long_name">MP3 (MPEG audio layer 3)</property>
    <property name="meta.media.0.codec.bit_rate">256000</property>
    <property name="seekable">1</property>
    <property name="audio_index">0</property>
    <property name="video_index">-1</property>
    <property name="creation_time">2025-06-02T11:05:30</property>
    <property name="astream">0</property>
    <property name="shotcut:skipConvert">1</property>
    <property name="shotcut:bins">Songs</property>
    <property name="xml">was here</property>
    <property name="shotcut:hash">2f323030e4ab9653b1ecca169f01cb5f</property>
  </chain>
  <producer id="producer0" in="00:00:00.000" out="00:00:03.983">
    <property name="length">04:00:00.000</property>
    <property name="eof">pause</property>
    <property name="resource">/home/kactuz/Documents/Github/Projekt-Systemutveckling/Shotcut - Trailer/Assets/Others/Black.png</property>
    <property name="ttl">1</property>
    <property name="aspect_ratio">1</property>
    <property name="meta.media.progressive">1</property>
    <property name="seekable">1</property>
    <property name="format">1</property>
    <property name="meta.media.width">640</property>
    <property name="meta.media.height">480</property>
    <property name="mlt_service">qimage</property>
    <property name="creation_time">2025-06-02T11:08:12</property>
    <property name="shotcut:skipConvert">1</property>
    <property name="shotcut:bins">Others</property>
    <property name="xml">was here</property>
    <property name="shotcut:hash">a0f3bb9b795a35398401d46e2940e41b</property>
    <property name="shotcut:caption">Black.png</property>
    <property name="ignore_points">1</property>
  </producer>
  <chain id="chain3" out="00:00:15.433">
    <property name="length">00:00:15.450</property>
    <property name="eof">pause</property>
    <property name="resource">/home/kactuz/Documents/Github/Projekt-Systemutveckling/Shotcut - Trailer/Assets/Soundeffect/cell-phone-vibration-352298.mp3</property>
    <property name="mlt_service">avformat-novalidate</property>
    <property name="meta.media.nb_streams">1</property>
    <property name="meta.media.0.stream.type">audio</property>
    <property name="meta.media.0.codec.sample_fmt">fltp</property>
    <property name="meta.media.0.codec.sample_rate">48000</property>
    <property name="meta.media.0.codec.channels">2</property>
    <property name="meta.media.0.codec.layout">stereo</property>
    <property name="meta.media.0.codec.name">mp3float</property>
    <property name="meta.media.0.codec.long_name">MP3 (MPEG audio layer 3)</property>
    <property name="meta.media.0.codec.bit_rate">256000</property>
    <property name="seekable">1</property>
    <property name="audio_index">0</property>
    <property name="video_index">-1</property>
    <property name="creation_time">2025-06-02T10:44:40</property>
    <property name="astream">0</property>
    <property name="shotcut:skipConvert">1</property>
    <property name="shotcut:bins">Soundeffects</property>
    <property name="xml">was here</property>
    <property name="shotcut:hash">d5be9d6ac202f220383e2fbdb1771134</property>
  </chain>
  <chain id="chain4" out="00:00:00.633">
    <property name="length">00:00:00.650</property>
    <property name="eof">pause</property>
    <property name="resource">/home/kactuz/Documents/Github/Projekt-Systemutveckling/Shotcut - Trailer/Assets/Soundeffect/click-tap-computer-mouse-352734.mp3</property>
    <property name="mlt_service">avformat-novalidate</property>
    <property name="meta.media.nb_streams">1</property>
    <property name="meta.media.0.stream.type">audio</property>
    <property name="meta.media.0.codec.sample_fmt">fltp</property>
    <property name="meta.media.0.codec.sample_rate">48000</property>
    <property name="meta.media.0.codec.channels">2</property>
    <property name="meta.media.0.codec.layout">stereo</property>
    <property name="meta.media.0.codec.name">mp3float</property>
    <property name="meta.media.0.codec.long_name">MP3 (MPEG audio layer 3)</property>
    <property name="meta.media.0.codec.bit_rate">256000</property>
    <property name="seekable">1</property>
    <property name="audio_index">0</property>
    <property name="video_index">-1</property>
    <property name="creation_time">2025-06-02T10:39:18</property>
    <property name="astream">0</property>
    <property name="shotcut:skipConvert">1</property>
    <property name="shotcut:bins">Soundeffects</property>
    <property name="xml">was here</property>
    <property name="shotcut:hash">2e34491803e59ec8067485689c9c29e3</property>
  </chain>
  <chain id="chain5" out="00:02:36.533">
    <property name="length">00:02:36.550</property>
    <property name="eof">pause</property>
    <property name="resource">/home/kactuz/Documents/Github/Projekt-Systemutveckling/Shotcut - Trailer/Assets/Soundeffect/early-morning-sound-in-village-345750.mp3</property>
    <property name="mlt_service">avformat-novalidate</property>
    <property name="meta.media.nb_streams">1</property>
    <property name="meta.media.0.stream.type">audio</property>
    <property name="meta.media.0.codec.sample_fmt">fltp</property>
    <property name="meta.media.0.codec.sample_rate">44100</property>
    <property name="meta.media.0.codec.channels">1</property>
    <property name="meta.media.0.codec.layout">mono</property>
    <property name="meta.media.0.codec.name">mp3float</property>
    <property name="meta.media.0.codec.long_name">MP3 (MPEG audio layer 3)</property>
    <property name="meta.media.0.codec.bit_rate">256000</property>
    <property name="seekable">1</property>
    <property name="audio_index">0</property>
    <property name="video_index">-1</property>
    <property name="creation_time">2025-06-02T10:43:47</property>
    <property name="astream">0</property>
    <property name="shotcut:skipConvert">1</property>
    <property name="shotcut:bins">Soundeffects</property>
    <property name="xml">was here</property>
    <property name="shotcut:hash">a4ca55bdb39f6959ac367894400192fb</property>
  </chain>
  <chain id="chain6" out="00:01:03.950">
    <property name="length">00:01:03.967</property>
    <property name="eof">pause</property>
    <property name="resource">/home/kactuz/Documents/Github/Projekt-Systemutveckling/Shotcut - Trailer/Assets/Soundeffect/heartbeat-sfx-320981.mp3</property>
    <property name="mlt_service">avformat-novalidate</property>
    <property name="meta.media.nb_streams">1</property>
    <property name="meta.media.0.stream.type">audio</property>
    <property name="meta.media.0.codec.sample_fmt">fltp</property>
    <property name="meta.media.0.codec.sample_rate">44100</property>
    <property name="meta.media.0.codec.channels">2</property>
    <property name="meta.media.0.codec.layout">stereo</property>
    <property name="meta.media.0.codec.name">mp3float</property>
    <property name="meta.media.0.codec.long_name">MP3 (MPEG audio layer 3)</property>
    <property name="meta.media.0.codec.bit_rate">256000</property>
    <property name="seekable">1</property>
    <property name="audio_index">0</property>
    <property name="video_index">-1</property>
    <property name="creation_time">2025-06-02T10:43:44</property>
    <property name="astream">0</property>
    <property name="shotcut:skipConvert">1</property>
    <property name="shotcut:bins">Soundeffects</property>
    <property name="xml">was here</property>
    <property name="shotcut:hash">a6a1f3f1b9aec7f1fe2853eecf0b01e9</property>
  </chain>
  <chain id="chain7" out="00:00:02.067">
    <property name="length">00:00:02.083</property>
    <property name="eof">pause</property>
    <property name="resource">/home/kactuz/Documents/Github/Projekt-Systemutveckling/Shotcut - Trailer/Assets/Soundeffect/impact-cinematic-boom-5-352465.mp3</property>
    <property name="mlt_service">avformat-novalidate</property>
    <property name="meta.media.nb_streams">1</property>
    <property name="meta.media.0.stream.type">audio</property>
    <property name="meta.media.0.codec.sample_fmt">fltp</property>
    <property name="meta.media.0.codec.sample_rate">48000</property>
    <property name="meta.media.0.codec.channels">2</property>
    <property name="meta.media.0.codec.layout">stereo</property>
    <property name="meta.media.0.codec.name">mp3float</property>
    <property name="meta.media.0.codec.long_name">MP3 (MPEG audio layer 3)</property>
    <property name="meta.media.0.codec.bit_rate">256000</property>
    <property name="seekable">1</property>
    <property name="audio_index">0</property>
    <property name="video_index">-1</property>
    <property name="creation_time">2025-06-02T10:39:33</property>
    <property name="astream">0</property>
    <property name="shotcut:skipConvert">1</property>
    <property name="shotcut:bins">Soundeffects</property>
    <property name="xml">was here</property>
    <property name="shotcut:hash">44187fffd5a1bc43188de3a2c1392ea8</property>
  </chain>
  <chain id="chain8" out="00:00:06.100">
    <property name="length">00:00:06.117</property>
    <property name="eof">pause</property>
    <property name="resource">/home/kactuz/Documents/Github/Projekt-Systemutveckling/Shotcut - Trailer/Assets/Soundeffect/notification-sounds-351833.mp3</property>
    <property name="mlt_service">avformat-novalidate</property>
    <property name="meta.media.nb_streams">1</property>
    <property name="meta.media.0.stream.type">audio</property>
    <property name="meta.media.0.codec.sample_fmt">fltp</property>
    <property name="meta.media.0.codec.sample_rate">44100</property>
    <property name="meta.media.0.codec.channels">2</property>
    <property name="meta.media.0.codec.layout">stereo</property>
    <property name="meta.media.0.codec.name">mp3float</property>
    <property name="meta.media.0.codec.long_name">MP3 (MPEG audio layer 3)</property>
    <property name="meta.media.0.codec.bit_rate">256000</property>
    <property name="seekable">1</property>
    <property name="audio_index">0</property>
    <property name="video_index">-1</property>
    <property name="creation_time">2025-06-02T10:47:53</property>
    <property name="astream">0</property>
    <property name="shotcut:skipConvert">1</property>
    <property name="shotcut:bins">Soundeffects</property>
    <property name="xml">was here</property>
    <property name="shotcut:hash">756cb47ce42255ae29845ef777f3124c</property>
  </chain>
  <chain id="chain9" out="00:00:04.483">
    <property name="length">00:00:04.500</property>
    <property name="eof">pause</property>
    <property name="resource">/home/kactuz/Documents/Github/Projekt-Systemutveckling/Shotcut - Trailer/Assets/Soundeffect/riser-hit-sfx-001-289802.mp3</property>
    <property name="mlt_service">avformat-novalidate</property>
    <property name="meta.media.nb_streams">1</property>
    <property name="meta.media.0.stream.type">audio</property>
    <property name="meta.media.0.codec.sample_fmt">fltp</property>
    <property name="meta.media.0.codec.sample_rate">44100</property>
    <property name="meta.media.0.codec.channels">2</property>
    <property name="meta.media.0.codec.layout">stereo</property>
    <property name="meta.media.0.codec.name">mp3float</property>
    <property name="meta.media.0.codec.long_name">MP3 (MPEG audio layer 3)</property>
    <property name="meta.media.0.codec.bit_rate">256000</property>
    <property name="seekable">1</property>
    <property name="audio_index">0</property>
    <property name="video_index">-1</property>
    <property name="creation_time">2025-06-02T10:37:18</property>
    <property name="astream">0</property>
    <property name="shotcut:skipConvert">1</property>
    <property name="shotcut:bins">Soundeffects</property>
    <property name="xml">was here</property>
    <property name="shotcut:hash">271bca742f52782b3e88fde5c906873d</property>
  </chain>
  <chain id="chain10" out="00:00:12.000">
    <property name="length">00:00:12.017</property>
    <property name="eof">pause</property>
    <property name="resource">/home/kactuz/Documents/Github/Projekt-Systemutveckling/Shotcut - Trailer/Assets/Soundeffect/riser-wildfire-285209.mp3</property>
    <property name="mlt_service">avformat-novalidate</property>
    <property name="meta.media.nb_streams">1</property>
    <property name="meta.media.0.stream.type">audio</property>
    <property name="meta.media.0.codec.sample_fmt">fltp</property>
    <property name="meta.media.0.codec.sample_rate">48000</property>
    <property name="meta.media.0.codec.channels">2</property>
    <property name="meta.media.0.codec.layout">stereo</property>
    <property name="meta.media.0.codec.name">mp3float</property>
    <property name="meta.media.0.codec.long_name">MP3 (MPEG audio layer 3)</property>
    <property name="meta.media.0.codec.bit_rate">256000</property>
    <property name="seekable">1</property>
    <property name="audio_index">0</property>
    <property name="video_index">-1</property>
    <property name="creation_time">2025-06-02T10:37:27</property>
    <property name="astream">0</property>
    <property name="shotcut:skipConvert">1</property>
    <property name="shotcut:bins">Soundeffects</property>
    <property name="xml">was here</property>
    <property name="shotcut:hash">b73cf4c95fa49bf1432b61206bb9f718</property>
  </chain>
  <chain id="chain11" out="00:00:01.450">
    <property name="length">00:00:01.467</property>
    <property name="eof">pause</property>
    <property name="resource">/home/kactuz/Documents/Github/Projekt-Systemutveckling/Shotcut - Trailer/Assets/Soundeffect/system-notification-2-352442.mp3</property>
    <property name="mlt_service">avformat-novalidate</property>
    <property name="meta.media.nb_streams">1</property>
    <property name="meta.media.0.stream.type">audio</property>
    <property name="meta.media.0.codec.sample_fmt">fltp</property>
    <property name="meta.media.0.codec.sample_rate">44100</property>
    <property name="meta.media.0.codec.channels">2</property>
    <property name="meta.media.0.codec.layout">stereo</property>
    <property name="meta.media.0.codec.name">mp3float</property>
    <property name="meta.media.0.codec.long_name">MP3 (MPEG audio layer 3)</property>
    <property name="meta.media.0.codec.bit_rate">256000</property>
    <property name="seekable">1</property>
    <property name="audio_index">0</property>
    <property name="video_index">-1</property>
    <property name="creation_time">2025-06-02T10:39:41</property>
    <property name="astream">0</property>
    <property name="shotcut:skipConvert">1</property>
    <property name="shotcut:bins">Soundeffects</property>
    <property name="xml">was here</property>
    <property name="shotcut:hash">d6708d5c5912e721e48c5720dbb4ffa7</property>
  </chain>
  <chain id="chain12" out="00:01:52.317">
    <property name="length">00:01:52.333</property>
    <property name="eof">pause</property>
    <property name="resource">/home/kactuz/Documents/Github/Projekt-Systemutveckling/Shotcut - Trailer/Assets/Gameplay/Fire event.webm</property>
    <property name="mlt_service">avformat-novalidate</property>
    <property name="meta.media.nb_streams">1</property>
    <property name="meta.media.0.stream.type">video</property>
    <property name="meta.media.0.stream.frame_rate">29.97</property>
    <property name="meta.media.0.stream.sample_aspect_ratio">1</property>
    <property name="meta.media.0.codec.width">1283</property>
    <property name="meta.media.0.codec.height">723</property>
    <property name="meta.media.0.codec.rotate">0</property>
    <property name="meta.media.0.codec.pix_fmt">yuv420p</property>
    <property name="meta.media.0.codec.sample_aspect_ratio">0</property>
    <property name="meta.media.0.codec.colorspace">709</property>
    <property name="meta.media.0.codec.color_trc">1</property>
    <property name="meta.media.0.codec.name">libvpx</property>
    <property name="meta.media.0.codec.long_name">libvpx VP8</property>
    <property name="meta.media.0.codec.bit_rate">0</property>
    <property name="meta.attr.0.stream.language.markup">eng</property>
    <property name="meta.attr.0.stream.title.markup">Video</property>
    <property name="meta.attr.encoder.markup">GStreamer matroskamux version 1.24.2</property>
    <property name="meta.attr.creation_time.markup">2025-06-02T11:54:50.986144Z</property>
    <property name="seekable">1</property>
    <property name="meta.media.sample_aspect_num">1</property>
    <property name="meta.media.sample_aspect_den">1</property>
    <property name="audio_index">-1</property>
    <property name="video_index">0</property>
    <property name="creation_time">2025-06-02T11:54:50</property>
    <property name="vstream">0</property>
    <property name="meta.media.frame_rate_num">30000</property>
    <property name="meta.media.frame_rate_den">1001</property>
    <property name="meta.media.colorspace">709</property>
    <property name="meta.media.color_trc">1</property>
    <property name="meta.media.has_b_frames">0</property>
    <property name="meta.media.width">1283</property>
    <property name="meta.media.height">723</property>
    <property name="meta.media.aspect_ratio">1</property>
    <property name="meta.media.color_range">mpeg</property>
    <property name="shotcut:skipConvert">1</property>
    <property name="shotcut:bins">Gameplay</property>
    <property name="xml">was here</property>
    <property name="shotcut:hash">56453b6fc34358dfdbfc59569adffc8e</property>
  </chain>
  <playlist id="main_bin" title="Shotcut version 25.05.11">
    <property name="shotcut:projectAudioChannels">2</property>
    <property name="shotcut:projectFolder">1</property>
    <properties name="shotcut:bins">
      <property name="4">Gameplay</property>
      <property name="5">Others</property>
      <property name="6">Songs</property>
      <property name="7">Soundeffects</property>
    </properties>
    <property name="xml_retain">1</property>
    <entry producer="chain0" in="00:00:00.000" out="00:02:26.017"/>
    <entry producer="chain1" in="00:00:00.000" out="00:06:17.683"/>
    <entry producer="chain2" in="00:00:00.000" out="00:01:12.683"/>
    <entry producer="producer0" in="00:00:00.000" out="00:00:03.983"/>
    <entry producer="chain3" in="00:00:00.000" out="00:00:15.433"/>
    <entry producer="chain4" in="00:00:00.000" out="00:00:00.633"/>
    <entry producer="chain5" in="00:00:00.000" out="00:02:36.533"/>
    <entry producer="chain6" in="00:00:00.000" out="00:01:03.950"/>
    <entry producer="chain7" in="00:00:00.000" out="00:00:02.067"/>
    <entry producer="chain8" in="00:00:00.000" out="00:00:06.100"/>
    <entry producer="chain9" in="00:00:00.000" out="00:00:04.483"/>
    <entry producer="chain10" in="00:00:00.000" out="00:00:12.000"/>
    <entry producer="chain11" in="00:00:00.000" out="00:00:01.450"/>
    <entry producer="chain12" in="00:00:00.000" out="00:01:52.317"/>
  </playlist>
  <producer id="black" in="00:00:00.000" out="00:01:28.650">
    <property name="length">00:01:28.667</property>
    <property name="eof">pause</property>
    <property name="resource">0</property>
    <property name="aspect_ratio">1</property>
    <property name="mlt_service">color</property>
    <property name="mlt_image_format">rgba</property>
    <property name="set.test_audio">0</property>
  </producer>
  <playlist id="background">
    <entry producer="black" in="00:00:00.000" out="00:01:28.650"/>
  </playlist>
  <chain id="chain13" out="00:02:26.017">
    <property name="length">00:02:26.033</property>
    <property name="eof">pause</property>
    <property name="resource">/home/kactuz/Documents/Github/Projekt-Systemutveckling/Shotcut - Trailer/Assets/Gameplay/Boulder event, beginer gameplay.webm</property>
    <property name="mlt_service">avformat-novalidate</property>
    <property name="meta.media.nb_streams">1</property>
    <property name="meta.media.0.stream.type">video</property>
    <property name="meta.media.0.stream.frame_rate">29.9167</property>
    <property name="meta.media.0.stream.sample_aspect_ratio">1</property>
    <property name="meta.media.0.codec.width">1280</property>
    <property name="meta.media.0.codec.height">724</property>
    <property name="meta.media.0.codec.rotate">0</property>
    <property name="meta.media.0.codec.pix_fmt">yuv420p</property>
    <property name="meta.media.0.codec.sample_aspect_ratio">0</property>
    <property name="meta.media.0.codec.colorspace">709</property>
    <property name="meta.media.0.codec.color_trc">1</property>
    <property name="meta.media.0.codec.name">libvpx</property>
    <property name="meta.media.0.codec.long_name">libvpx VP8</property>
    <property name="meta.media.0.codec.bit_rate">0</property>
    <property name="meta.attr.0.stream.language.markup">eng</property>
    <property name="meta.attr.0.stream.title.markup">Video</property>
    <property name="meta.attr.encoder.markup">GStreamer matroskamux version 1.24.2</property>
    <property name="meta.attr.creation_time.markup">2025-06-02T09:45:15.768499Z</property>
    <property name="seekable">1</property>
    <property name="meta.media.sample_aspect_num">1</property>
    <property name="meta.media.sample_aspect_den">1</property>
    <property name="audio_index">-1</property>
    <property name="video_index">0</property>
    <property name="creation_time">2025-06-02T09:45:15</property>
    <property name="vstream">0</property>
    <property name="meta.media.frame_rate_num">359</property>
    <property name="meta.media.frame_rate_den">12</property>
    <property name="meta.media.colorspace">709</property>
    <property name="meta.media.color_trc">1</property>
    <property name="meta.media.has_b_frames">0</property>
    <property name="meta.media.width">1280</property>
    <property name="meta.media.height">724</property>
    <property name="meta.media.aspect_ratio">1</property>
    <property name="meta.media.color_range">mpeg</property>
    <property name="shotcut:skipConvert">1</property>
    <property name="shotcut:bins">Gameplay</property>
    <property name="xml">was here</property>
    <property name="shotcut:hash">7068d669fd7ea20345aeb45419250ba9</property>
    <property name="meta.media.top_field_first">0</property>
    <property name="meta.media.progressive">1</property>
    <property name="shotcut:caption">Boulder event, beginer gameplay.webm</property>
  </chain>
  <chain id="chain14" out="00:06:17.683">
    <property name="length">00:06:17.700</property>
    <property name="eof">pause</property>
    <property name="resource">/home/kactuz/Documents/Github/Projekt-Systemutveckling/Shotcut - Trailer/Assets/Gameplay/Long gameplay - Eventfull ending.webm</property>
    <property name="mlt_service">avformat-novalidate</property>
    <property name="meta.media.nb_streams">1</property>
    <property name="meta.media.0.stream.type">video</property>
    <property name="meta.media.0.stream.frame_rate">29.6667</property>
    <property name="meta.media.0.stream.sample_aspect_ratio">1</property>
    <property name="meta.media.0.codec.width">1280</property>
    <property name="meta.media.0.codec.height">724</property>
    <property name="meta.media.0.codec.rotate">0</property>
    <property name="meta.media.0.codec.pix_fmt">yuv420p</property>
    <property name="meta.media.0.codec.sample_aspect_ratio">0</property>
    <property name="meta.media.0.codec.colorspace">709</property>
    <property name="meta.media.0.codec.color_trc">1</property>
    <property name="meta.media.0.codec.name">libvpx</property>
    <property name="meta.media.0.codec.long_name">libvpx VP8</property>
    <property name="meta.media.0.codec.bit_rate">0</property>
    <property name="meta.attr.0.stream.language.markup">eng</property>
    <property name="meta.attr.0.stream.title.markup">Video</property>
    <property name="meta.attr.encoder.markup">GStreamer matroskamux version 1.24.2</property>
    <property name="meta.attr.creation_time.markup">2025-06-02T09:52:30.011302Z</property>
    <property name="seekable">1</property>
    <property name="meta.media.sample_aspect_num">1</property>
    <property name="meta.media.sample_aspect_den">1</property>
    <property name="audio_index">-1</property>
    <property name="video_index">0</property>
    <property name="creation_time">2025-06-02T09:52:30</property>
    <property name="vstream">0</property>
    <property name="meta.media.frame_rate_num">89</property>
    <property name="meta.media.frame_rate_den">3</property>
    <property name="meta.media.colorspace">709</property>
    <property name="meta.media.color_trc">1</property>
    <property name="meta.media.has_b_frames">0</property>
    <property name="meta.media.width">1280</property>
    <property name="meta.media.height">724</property>
    <property name="meta.media.aspect_ratio">1</property>
    <property name="meta.media.color_range">mpeg</property>
    <property name="shotcut:skipConvert">1</property>
    <property name="shotcut:bins">Gameplay</property>
    <property name="xml">was here</property>
    <property name="shotcut:hash">878d1e9e489e0f98ec833769031bd8f2</property>
    <property name="meta.media.top_field_first">0</property>
    <property name="meta.media.progressive">1</property>
    <property name="shotcut:caption">Long gameplay - Eventfull ending.webm</property>
  </chain>
  <chain id="chain15" out="00:06:17.683">
    <property name="length">00:06:17.700</property>
    <property name="eof">pause</property>
    <property name="resource">/home/kactuz/Documents/Github/Projekt-Systemutveckling/Shotcut - Trailer/Assets/Gameplay/Long gameplay - Eventfull ending.webm</property>
    <property name="mlt_service">avformat-novalidate</property>
    <property name="meta.media.nb_streams">1</property>
    <property name="meta.media.0.stream.type">video</property>
    <property name="meta.media.0.stream.frame_rate">29.6667</property>
    <property name="meta.media.0.stream.sample_aspect_ratio">1</property>
    <property name="meta.media.0.codec.width">1280</property>
    <property name="meta.media.0.codec.height">724</property>
    <property name="meta.media.0.codec.rotate">0</property>
    <property name="meta.media.0.codec.pix_fmt">yuv420p</property>
    <property name="meta.media.0.codec.sample_aspect_ratio">0</property>
    <property name="meta.media.0.codec.colorspace">709</property>
    <property name="meta.media.0.codec.color_trc">1</property>
    <property name="meta.media.0.codec.name">libvpx</property>
    <property name="meta.media.0.codec.long_name">libvpx VP8</property>
    <property name="meta.media.0.codec.bit_rate">0</property>
    <property name="meta.attr.0.stream.language.markup">eng</property>
    <property name="meta.attr.0.stream.title.markup">Video</property>
    <property name="meta.attr.encoder.markup">GStreamer matroskamux version 1.24.2</property>
    <property name="meta.attr.creation_time.markup">2025-06-02T09:52:30.011302Z</property>
    <property name="seekable">1</property>
    <property name="meta.media.sample_aspect_num">1</property>
    <property name="meta.media.sample_aspect_den">1</property>
    <property name="audio_index">-1</property>
    <property name="video_index">0</property>
    <property name="creation_time">2025-06-02T09:52:30</property>
    <property name="vstream">0</property>
    <property name="meta.media.frame_rate_num">89</property>
    <property name="meta.media.frame_rate_den">3</property>
    <property name="meta.media.colorspace">709</property>
    <property name="meta.media.color_trc">1</property>
    <property name="meta.media.has_b_frames">0</property>
    <property name="meta.media.width">1280</property>
    <property name="meta.media.height">724</property>
    <property name="meta.media.aspect_ratio">1</property>
    <property name="meta.media.color_range">mpeg</property>
    <property name="shotcut:skipConvert">1</property>
    <property name="shotcut:bins">Gameplay</property>
    <property name="xml">was here</property>
    <property name="shotcut:hash">878d1e9e489e0f98ec833769031bd8f2</property>
    <property name="meta.media.top_field_first">0</property>
    <property name="meta.media.progressive">1</property>
    <property name="shotcut:caption">Long gameplay - Eventfull ending.webm</property>
  </chain>
  <chain id="chain16" out="00:06:17.683">
    <property name="length">00:06:17.700</property>
    <property name="eof">pause</property>
    <property name="resource">/home/kactuz/Documents/Github/Projekt-Systemutveckling/Shotcut - Trailer/Assets/Gameplay/Long gameplay - Eventfull ending.webm</property>
    <property name="mlt_service">avformat-novalidate</property>
    <property name="meta.media.nb_streams">1</property>
    <property name="meta.media.0.stream.type">video</property>
    <property name="meta.media.0.stream.frame_rate">29.6667</property>
    <property name="meta.media.0.stream.sample_aspect_ratio">1</property>
    <property name="meta.media.0.codec.width">1280</property>
    <property name="meta.media.0.codec.height">724</property>
    <property name="meta.media.0.codec.rotate">0</property>
    <property name="meta.media.0.codec.pix_fmt">yuv420p</property>
    <property name="meta.media.0.codec.sample_aspect_ratio">0</property>
    <property name="meta.media.0.codec.colorspace">709</property>
    <property name="meta.media.0.codec.color_trc">1</property>
    <property name="meta.media.0.codec.name">libvpx</property>
    <property name="meta.media.0.codec.long_name">libvpx VP8</property>
    <property name="meta.media.0.codec.bit_rate">0</property>
    <property name="meta.attr.0.stream.language.markup">eng</property>
    <property name="meta.attr.0.stream.title.markup">Video</property>
    <property name="meta.attr.encoder.markup">GStreamer matroskamux version 1.24.2</property>
    <property name="meta.attr.creation_time.markup">2025-06-02T09:52:30.011302Z</property>
    <property name="seekable">1</property>
    <property name="meta.media.sample_aspect_num">1</property>
    <property name="meta.media.sample_aspect_den">1</property>
    <property name="audio_index">-1</property>
    <property name="video_index">0</property>
    <property name="creation_time">2025-06-02T09:52:30</property>
    <property name="vstream">0</property>
    <property name="meta.media.frame_rate_num">89</property>
    <property name="meta.media.frame_rate_den">3</property>
    <property name="meta.media.colorspace">709</property>
    <property name="meta.media.color_trc">1</property>
    <property name="meta.media.has_b_frames">0</property>
    <property name="meta.media.width">1280</property>
    <property name="meta.media.height">724</property>
    <property name="meta.media.aspect_ratio">1</property>
    <property name="meta.media.color_range">mpeg</property>
    <property name="shotcut:skipConvert">1</property>
    <property name="shotcut:bins">Gameplay</property>
    <property name="xml">was here</property>
    <property name="shotcut:hash">878d1e9e489e0f98ec833769031bd8f2</property>
    <property name="meta.media.top_field_first">0</property>
    <property name="meta.media.progressive">1</property>
    <property name="shotcut:caption">Long gameplay - Eventfull ending.webm</property>
    <filter id="filter0" in="00:00:12.817" out="00:00:21.417">
      <property name="start">1</property>
      <property name="level">00:00:08.017=1;00:00:08.600=0</property>
      <property name="mlt_service">brightness</property>
      <property name="shotcut:filter">fadeOutBrightness</property>
      <property name="alpha">1</property>
      <property name="shotcut:animOut">36</property>
    </filter>
  </chain>
  <chain id="chain17" out="00:06:17.683">
    <property name="length">00:06:17.700</property>
    <property name="eof">pause</property>
    <property name="resource">/home/kactuz/Documents/Github/Projekt-Systemutveckling/Shotcut - Trailer/Assets/Gameplay/Long gameplay - Eventfull ending.webm</property>
    <property name="mlt_service">avformat-novalidate</property>
    <property name="meta.media.nb_streams">1</property>
    <property name="meta.media.0.stream.type">video</property>
    <property name="meta.media.0.stream.frame_rate">29.6667</property>
    <property name="meta.media.0.stream.sample_aspect_ratio">1</property>
    <property name="meta.media.0.codec.width">1280</property>
    <property name="meta.media.0.codec.height">724</property>
    <property name="meta.media.0.codec.rotate">0</property>
    <property name="meta.media.0.codec.pix_fmt">yuv420p</property>
    <property name="meta.media.0.codec.sample_aspect_ratio">0</property>
    <property name="meta.media.0.codec.colorspace">709</property>
    <property name="meta.media.0.codec.color_trc">1</property>
    <property name="meta.media.0.codec.name">libvpx</property>
    <property name="meta.media.0.codec.long_name">libvpx VP8</property>
    <property name="meta.media.0.codec.bit_rate">0</property>
    <property name="meta.attr.0.stream.language.markup">eng</property>
    <property name="meta.attr.0.stream.title.markup">Video</property>
    <property name="meta.attr.encoder.markup">GStreamer matroskamux version 1.24.2</property>
    <property name="meta.attr.creation_time.markup">2025-06-02T09:52:30.011302Z</property>
    <property name="seekable">1</property>
    <property name="meta.media.sample_aspect_num">1</property>
    <property name="meta.media.sample_aspect_den">1</property>
    <property name="audio_index">-1</property>
    <property name="video_index">0</property>
    <property name="creation_time">2025-06-02T09:52:30</property>
    <property name="vstream">0</property>
    <property name="meta.media.frame_rate_num">89</property>
    <property name="meta.media.frame_rate_den">3</property>
    <property name="meta.media.colorspace">709</property>
    <property name="meta.media.color_trc">1</property>
    <property name="meta.media.has_b_frames">0</property>
    <property name="meta.media.width">1280</property>
    <property name="meta.media.height">724</property>
    <property name="meta.media.aspect_ratio">1</property>
    <property name="meta.media.color_range">mpeg</property>
    <property name="shotcut:skipConvert">1</property>
    <property name="shotcut:bins">Gameplay</property>
    <property name="xml">was here</property>
    <property name="shotcut:hash">878d1e9e489e0f98ec833769031bd8f2</property>
    <property name="meta.media.top_field_first">0</property>
    <property name="meta.media.progressive">1</property>
    <property name="shotcut:caption">Long gameplay - Eventfull ending.webm</property>
  </chain>
  <chain id="chain18" out="00:06:17.683">
    <property name="length">00:06:17.700</property>
    <property name="eof">pause</property>
    <property name="resource">/home/kactuz/Documents/Github/Projekt-Systemutveckling/Shotcut - Trailer/Assets/Gameplay/Long gameplay - Eventfull ending.webm</property>
    <property name="mlt_service">avformat-novalidate</property>
    <property name="meta.media.nb_streams">1</property>
    <property name="meta.media.0.stream.type">video</property>
    <property name="meta.media.0.stream.frame_rate">29.6667</property>
    <property name="meta.media.0.stream.sample_aspect_ratio">1</property>
    <property name="meta.media.0.codec.width">1280</property>
    <property name="meta.media.0.codec.height">724</property>
    <property name="meta.media.0.codec.rotate">0</property>
    <property name="meta.media.0.codec.pix_fmt">yuv420p</property>
    <property name="meta.media.0.codec.sample_aspect_ratio">0</property>
    <property name="meta.media.0.codec.colorspace">709</property>
    <property name="meta.media.0.codec.color_trc">1</property>
    <property name="meta.media.0.codec.name">libvpx</property>
    <property name="meta.media.0.codec.long_name">libvpx VP8</property>
    <property name="meta.media.0.codec.bit_rate">0</property>
    <property name="meta.attr.0.stream.language.markup">eng</property>
    <property name="meta.attr.0.stream.title.markup">Video</property>
    <property name="meta.attr.encoder.markup">GStreamer matroskamux version 1.24.2</property>
    <property name="meta.attr.creation_time.markup">2025-06-02T09:52:30.011302Z</property>
    <property name="seekable">1</property>
    <property name="meta.media.sample_aspect_num">1</property>
    <property name="meta.media.sample_aspect_den">1</property>
    <property name="audio_index">-1</property>
    <property name="video_index">0</property>
    <property name="creation_time">2025-06-02T09:52:30</property>
    <property name="vstream">0</property>
    <property name="meta.media.frame_rate_num">89</property>
    <property name="meta.media.frame_rate_den">3</property>
    <property name="meta.media.colorspace">709</property>
    <property name="meta.media.color_trc">1</property>
    <property name="meta.media.has_b_frames">0</property>
    <property name="meta.media.width">1280</property>
    <property name="meta.media.height">724</property>
    <property name="meta.media.aspect_ratio">1</property>
    <property name="meta.media.color_range">mpeg</property>
    <property name="shotcut:skipConvert">1</property>
    <property name="shotcut:bins">Gameplay</property>
    <property name="xml">was here</property>
    <property name="shotcut:hash">878d1e9e489e0f98ec833769031bd8f2</property>
    <property name="meta.media.top_field_first">0</property>
    <property name="meta.media.progressive">1</property>
    <property name="shotcut:caption">Long gameplay - Eventfull ending.webm</property>
  </chain>
  <chain id="chain19" out="00:06:17.683">
    <property name="length">00:06:17.700</property>
    <property name="eof">pause</property>
    <property name="resource">/home/kactuz/Documents/Github/Projekt-Systemutveckling/Shotcut - Trailer/Assets/Gameplay/Long gameplay - Eventfull ending.webm</property>
    <property name="mlt_service">avformat-novalidate</property>
    <property name="meta.media.nb_streams">1</property>
    <property name="meta.media.0.stream.type">video</property>
    <property name="meta.media.0.stream.frame_rate">29.6667</property>
    <property name="meta.media.0.stream.sample_aspect_ratio">1</property>
    <property name="meta.media.0.codec.width">1280</property>
    <property name="meta.media.0.codec.height">724</property>
    <property name="meta.media.0.codec.rotate">0</property>
    <property name="meta.media.0.codec.pix_fmt">yuv420p</property>
    <property name="meta.media.0.codec.sample_aspect_ratio">0</property>
    <property name="meta.media.0.codec.colorspace">709</property>
    <property name="meta.media.0.codec.color_trc">1</property>
    <property name="meta.media.0.codec.name">libvpx</property>
    <property name="meta.media.0.codec.long_name">libvpx VP8</property>
    <property name="meta.media.0.codec.bit_rate">0</property>
    <property name="meta.attr.0.stream.language.markup">eng</property>
    <property name="meta.attr.0.stream.title.markup">Video</property>
    <property name="meta.attr.encoder.markup">GStreamer matroskamux version 1.24.2</property>
    <property name="meta.attr.creation_time.markup">2025-06-02T09:52:30.011302Z</property>
    <property name="seekable">1</property>
    <property name="meta.media.sample_aspect_num">1</property>
    <property name="meta.media.sample_aspect_den">1</property>
    <property name="audio_index">-1</property>
    <property name="video_index">0</property>
    <property name="creation_time">2025-06-02T09:52:30</property>
    <property name="vstream">0</property>
    <property name="meta.media.frame_rate_num">89</property>
    <property name="meta.media.frame_rate_den">3</property>
    <property name="meta.media.colorspace">709</property>
    <property name="meta.media.color_trc">1</property>
    <property name="meta.media.has_b_frames">0</property>
    <property name="meta.media.width">1280</property>
    <property name="meta.media.height">724</property>
    <property name="meta.media.aspect_ratio">1</property>
    <property name="meta.media.color_range">mpeg</property>
    <property name="shotcut:skipConvert">1</property>
    <property name="shotcut:bins">Gameplay</property>
    <property name="xml">was here</property>
    <property name="shotcut:hash">878d1e9e489e0f98ec833769031bd8f2</property>
    <property name="meta.media.top_field_first">0</property>
    <property name="meta.media.progressive">1</property>
    <property name="shotcut:caption">Long gameplay - Eventfull ending.webm</property>
  </chain>
  <chain id="chain20" out="00:01:52.317">
    <property name="length">00:01:52.333</property>
    <property name="eof">pause</property>
    <property name="resource">/home/kactuz/Documents/Github/Projekt-Systemutveckling/Shotcut - Trailer/Assets/Gameplay/Fire event.webm</property>
    <property name="mlt_service">avformat-novalidate</property>
    <property name="meta.media.nb_streams">1</property>
    <property name="meta.media.0.stream.type">video</property>
    <property name="meta.media.0.stream.frame_rate">29.97</property>
    <property name="meta.media.0.stream.sample_aspect_ratio">1</property>
    <property name="meta.media.0.codec.width">1283</property>
    <property name="meta.media.0.codec.height">723</property>
    <property name="meta.media.0.codec.rotate">0</property>
    <property name="meta.media.0.codec.pix_fmt">yuv420p</property>
    <property name="meta.media.0.codec.sample_aspect_ratio">0</property>
    <property name="meta.media.0.codec.colorspace">709</property>
    <property name="meta.media.0.codec.color_trc">1</property>
    <property name="meta.media.0.codec.name">libvpx</property>
    <property name="meta.media.0.codec.long_name">libvpx VP8</property>
    <property name="meta.media.0.codec.bit_rate">0</property>
    <property name="meta.attr.0.stream.language.markup">eng</property>
    <property name="meta.attr.0.stream.title.markup">Video</property>
    <property name="meta.attr.encoder.markup">GStreamer matroskamux version 1.24.2</property>
    <property name="meta.attr.creation_time.markup">2025-06-02T11:54:50.986144Z</property>
    <property name="seekable">1</property>
    <property name="meta.media.sample_aspect_num">1</property>
    <property name="meta.media.sample_aspect_den">1</property>
    <property name="audio_index">-1</property>
    <property name="video_index">0</property>
    <property name="creation_time">2025-06-02T11:54:50</property>
    <property name="vstream">0</property>
    <property name="meta.media.frame_rate_num">30000</property>
    <property name="meta.media.frame_rate_den">1001</property>
    <property name="meta.media.colorspace">709</property>
    <property name="meta.media.color_trc">1</property>
    <property name="meta.media.has_b_frames">0</property>
    <property name="meta.media.width">1283</property>
    <property name="meta.media.height">723</property>
    <property name="meta.media.aspect_ratio">1</property>
    <property name="meta.media.color_range">mpeg</property>
    <property name="shotcut:skipConvert">1</property>
    <property name="shotcut:bins">Gameplay</property>
    <property name="xml">was here</property>
    <property name="shotcut:hash">56453b6fc34358dfdbfc59569adffc8e</property>
    <property name="meta.media.top_field_first">0</property>
    <property name="meta.media.progressive">1</property>
    <property name="shotcut:caption">Fire event.webm</property>
  </chain>
  <chain id="chain21" out="00:02:26.017">
    <property name="length">00:02:26.033</property>
    <property name="eof">pause</property>
    <property name="resource">/home/kactuz/Documents/Github/Projekt-Systemutveckling/Shotcut - Trailer/Assets/Gameplay/Boulder event, beginer gameplay.webm</property>
    <property name="mlt_service">avformat-novalidate</property>
    <property name="meta.media.nb_streams">1</property>
    <property name="meta.media.0.stream.type">video</property>
    <property name="meta.media.0.stream.frame_rate">29.9167</property>
    <property name="meta.media.0.stream.sample_aspect_ratio">1</property>
    <property name="meta.media.0.codec.width">1280</property>
    <property name="meta.media.0.codec.height">724</property>
    <property name="meta.media.0.codec.rotate">0</property>
    <property name="meta.media.0.codec.pix_fmt">yuv420p</property>
    <property name="meta.media.0.codec.sample_aspect_ratio">0</property>
    <property name="meta.media.0.codec.colorspace">709</property>
    <property name="meta.media.0.codec.color_trc">1</property>
    <property name="meta.media.0.codec.name">libvpx</property>
    <property name="meta.media.0.codec.long_name">libvpx VP8</property>
    <property name="meta.media.0.codec.bit_rate">0</property>
    <property name="meta.attr.0.stream.language.markup">eng</property>
    <property name="meta.attr.0.stream.title.markup">Video</property>
    <property name="meta.attr.encoder.markup">GStreamer matroskamux version 1.24.2</property>
    <property name="meta.attr.creation_time.markup">2025-06-02T09:45:15.768499Z</property>
    <property name="seekable">1</property>
    <property name="meta.media.sample_aspect_num">1</property>
    <property name="meta.media.sample_aspect_den">1</property>
    <property name="audio_index">-1</property>
    <property name="video_index">0</property>
    <property name="creation_time">2025-06-02T09:45:15</property>
    <property name="vstream">0</property>
    <property name="meta.media.frame_rate_num">359</property>
    <property name="meta.media.frame_rate_den">12</property>
    <property name="meta.media.colorspace">709</property>
    <property name="meta.media.color_trc">1</property>
    <property name="meta.media.has_b_frames">0</property>
    <property name="meta.media.width">1280</property>
    <property name="meta.media.height">724</property>
    <property name="meta.media.aspect_ratio">1</property>
    <property name="meta.media.color_range">mpeg</property>
    <property name="shotcut:skipConvert">1</property>
    <property name="shotcut:bins">Gameplay</property>
    <property name="xml">was here</property>
    <property name="shotcut:hash">7068d669fd7ea20345aeb45419250ba9</property>
    <property name="meta.media.top_field_first">0</property>
    <property name="meta.media.progressive">1</property>
    <property name="shotcut:caption">Boulder event, beginer gameplay.webm</property>
    <filter id="filter1" in="00:00:36.883" out="00:00:44.783">
      <property name="start">1</property>
      <property name="level">00:00:00.000=0;00:00:00.633=1</property>
      <property name="mlt_service">brightness</property>
      <property name="shotcut:filter">fadeInBrightness</property>
      <property name="alpha">1</property>
      <property name="shotcut:animIn">39</property>
    </filter>
  </chain>
  <chain id="chain22" out="00:02:26.017">
    <property name="length">00:02:26.033</property>
    <property name="eof">pause</property>
    <property name="resource">/home/kactuz/Documents/Github/Projekt-Systemutveckling/Shotcut - Trailer/Assets/Gameplay/Boulder event, beginer gameplay.webm</property>
    <property name="mlt_service">avformat-novalidate</property>
    <property name="meta.media.nb_streams">1</property>
    <property name="meta.media.0.stream.type">video</property>
    <property name="meta.media.0.stream.frame_rate">29.9167</property>
    <property name="meta.media.0.stream.sample_aspect_ratio">1</property>
    <property name="meta.media.0.codec.width">1280</property>
    <property name="meta.media.0.codec.height">724</property>
    <property name="meta.media.0.codec.rotate">0</property>
    <property name="meta.media.0.codec.pix_fmt">yuv420p</property>
    <property name="meta.media.0.codec.sample_aspect_ratio">0</property>
    <property name="meta.media.0.codec.colorspace">709</property>
    <property name="meta.media.0.codec.color_trc">1</property>
    <property name="meta.media.0.codec.name">libvpx</property>
    <property name="meta.media.0.codec.long_name">libvpx VP8</property>
    <property name="meta.media.0.codec.bit_rate">0</property>
    <property name="meta.attr.0.stream.language.markup">eng</property>
    <property name="meta.attr.0.stream.title.markup">Video</property>
    <property name="meta.attr.encoder.markup">GStreamer matroskamux version 1.24.2</property>
    <property name="meta.attr.creation_time.markup">2025-06-02T09:45:15.768499Z</property>
    <property name="seekable">1</property>
    <property name="meta.media.sample_aspect_num">1</property>
    <property name="meta.media.sample_aspect_den">1</property>
    <property name="audio_index">-1</property>
    <property name="video_index">0</property>
    <property name="creation_time">2025-06-02T09:45:15</property>
    <property name="vstream">0</property>
    <property name="meta.media.frame_rate_num">359</property>
    <property name="meta.media.frame_rate_den">12</property>
    <property name="meta.media.colorspace">709</property>
    <property name="meta.media.color_trc">1</property>
    <property name="meta.media.has_b_frames">0</property>
    <property name="meta.media.width">1280</property>
    <property name="meta.media.height">724</property>
    <property name="meta.media.aspect_ratio">1</property>
    <property name="meta.media.color_range">mpeg</property>
    <property name="shotcut:skipConvert">1</property>
    <property name="shotcut:bins">Gameplay</property>
    <property name="xml">was here</property>
    <property name="shotcut:hash">7068d669fd7ea20345aeb45419250ba9</property>
    <property name="meta.media.top_field_first">0</property>
    <property name="meta.media.progressive">1</property>
    <property name="shotcut:caption">Boulder event, beginer gameplay.webm</property>
  </chain>
  <producer id="producer1" in="00:00:00.000" out="03:59:59.983">
    <property name="length">04:00:00.000</property>
    <property name="eof">pause</property>
    <property name="resource">/home/kactuz/Documents/Github/Projekt-Systemutveckling/Shotcut - Trailer/Assets/Others/Black.png</property>
    <property name="ttl">1</property>
    <property name="aspect_ratio">1</property>
    <property name="meta.media.progressive">1</property>
    <property name="seekable">1</property>
    <property name="format">1</property>
    <property name="meta.media.width">640</property>
    <property name="meta.media.height">480</property>
    <property name="mlt_service">qimage</property>
    <property name="creation_time">2025-06-02T11:08:12</property>
    <property name="shotcut:skipConvert">1</property>
    <property name="shotcut:bins">Others</property>
    <property name="xml">was here</property>
    <property name="shotcut:hash">a0f3bb9b795a35398401d46e2940e41b</property>
    <property name="shotcut:caption">Black.png</property>
    <property name="ignore_points">1</property>
  </producer>
  <playlist id="playlist0">
    <property name="shotcut:video">1</property>
    <property name="shotcut:name">V1</property>
    <property name="meta.shotcut.vui">1</property>
    <blank length="00:00:06.117"/>
    <entry producer="chain13" in="00:00:00.000" out="00:00:02.883"/>
    <blank length="00:00:00.700"/>
    <entry producer="chain14" in="00:00:07.617" out="00:00:10.167"/>
    <blank length="00:00:01.333"/>
    <entry producer="chain15" in="00:00:04.467" out="00:00:05.800"/>
    <blank length="00:00:02.600"/>
    <entry producer="chain16" in="00:00:12.817" out="00:00:21.417"/>
    <blank length="00:00:02.717"/>
    <entry producer="chain17" in="00:00:33.433" out="00:00:36.317"/>
    <blank length="00:00:00.767"/>
    <entry producer="chain18" in="00:00:38.950" out="00:00:40.783"/>
    <entry producer="chain19" in="00:00:41.867" out="00:00:43.900"/>
    <blank length="00:00:02.533"/>
    <entry producer="chain20" in="00:00:54.133" out="00:01:05.583"/>
    <blank length="00:00:02.817"/>
    <entry producer="chain21" in="00:00:36.883" out="00:00:44.783"/>
    <blank length="00:00:02.650"/>
    <entry producer="chain22" in="00:00:47.450" out="00:01:08.250"/>
    <entry producer="producer1" in="00:00:00.000" out="00:00:03.983"/>
    <filter id="filter2" out="00:01:28.650">
      <property name="background">color:#00000000</property>
      <property name="mlt_service">affine</property>
      <property name="shotcut:filter">affineSizePosition</property>
      <property name="transition.fix_rotate_x">0</property>
      <property name="transition.fill">1</property>
      <property name="transition.distort">0</property>
      <property name="transition.rect">0 -4.51411 1288.03 724.514 1</property>
      <property name="transition.valign">middle</property>
      <property name="transition.halign">center</property>
      <property name="shotcut:animIn">00:00:00.000</property>
      <property name="shotcut:animOut">00:00:00.000</property>
      <property name="transition.threads">0</property>
    </filter>
  </playlist>
  <chain id="chain23" out="00:00:06.100">
    <property name="length">00:00:06.117</property>
    <property name="eof">pause</property>
    <property name="resource">/home/kactuz/Documents/Github/Projekt-Systemutveckling/Shotcut - Trailer/Assets/Soundeffect/notification-sounds-351833.mp3</property>
    <property name="mlt_service">avformat-novalidate</property>
    <property name="meta.media.nb_streams">1</property>
    <property name="meta.media.0.stream.type">audio</property>
    <property name="meta.media.0.codec.sample_fmt">fltp</property>
    <property name="meta.media.0.codec.sample_rate">44100</property>
    <property name="meta.media.0.codec.channels">2</property>
    <property name="meta.media.0.codec.layout">stereo</property>
    <property name="meta.media.0.codec.name">mp3float</property>
    <property name="meta.media.0.codec.long_name">MP3 (MPEG audio layer 3)</property>
    <property name="meta.media.0.codec.bit_rate">256000</property>
    <property name="seekable">1</property>
    <property name="audio_index">0</property>
    <property name="video_index">-1</property>
    <property name="creation_time">2025-06-02T10:47:53</property>
    <property name="astream">0</property>
    <property name="shotcut:skipConvert">1</property>
    <property name="shotcut:bins">Soundeffects</property>
    <property name="xml">was here</property>
    <property name="shotcut:hash">756cb47ce42255ae29845ef777f3124c</property>
    <property name="shotcut:caption">notification-sounds-351833.mp3</property>
  </chain>
  <chain id="chain24" out="00:00:04.483">
    <property name="length">00:00:04.500</property>
    <property name="eof">pause</property>
    <property name="resource">/home/kactuz/Documents/Github/Projekt-Systemutveckling/Shotcut - Trailer/Assets/Soundeffect/riser-hit-sfx-001-289802.mp3</property>
    <property name="mlt_service">avformat-novalidate</property>
    <property name="meta.media.nb_streams">1</property>
    <property name="meta.media.0.stream.type">audio</property>
    <property name="meta.media.0.codec.sample_fmt">fltp</property>
    <property name="meta.media.0.codec.sample_rate">44100</property>
    <property name="meta.media.0.codec.channels">2</property>
    <property name="meta.media.0.codec.layout">stereo</property>
    <property name="meta.media.0.codec.name">mp3float</property>
    <property name="meta.media.0.codec.long_name">MP3 (MPEG audio layer 3)</property>
    <property name="meta.media.0.codec.bit_rate">256000</property>
    <property name="seekable">1</property>
    <property name="audio_index">0</property>
    <property name="video_index">-1</property>
    <property name="creation_time">2025-06-02T10:37:18</property>
    <property name="astream">0</property>
    <property name="shotcut:skipConvert">1</property>
    <property name="shotcut:bins">Soundeffects</property>
    <property name="xml">was here</property>
    <property name="shotcut:hash">271bca742f52782b3e88fde5c906873d</property>
    <property name="shotcut:caption">riser-hit-sfx-001-289802.mp3</property>
    <filter id="filter3" out="00:00:04.483">
      <property name="window">75</property>
      <property name="max_gain">20dB</property>
      <property name="level">-16.1</property>
      <property name="mlt_service">volume</property>
    </filter>
  </chain>
  <chain id="chain25" out="00:01:03.950">
    <property name="length">00:01:03.967</property>
    <property name="eof">pause</property>
    <property name="resource">/home/kactuz/Documents/Github/Projekt-Systemutveckling/Shotcut - Trailer/Assets/Soundeffect/heartbeat-sfx-320981.mp3</property>
    <property name="mlt_service">avformat-novalidate</property>
    <property name="meta.media.nb_streams">1</property>
    <property name="meta.media.0.stream.type">audio</property>
    <property name="meta.media.0.codec.sample_fmt">fltp</property>
    <property name="meta.media.0.codec.sample_rate">44100</property>
    <property name="meta.media.0.codec.channels">2</property>
    <property name="meta.media.0.codec.layout">stereo</property>
    <property name="meta.media.0.codec.name">mp3float</property>
    <property name="meta.media.0.codec.long_name">MP3 (MPEG audio layer 3)</property>
    <property name="meta.media.0.codec.bit_rate">256000</property>
    <property name="seekable">1</property>
    <property name="audio_index">0</property>
    <property name="video_index">-1</property>
    <property name="creation_time">2025-06-02T10:43:44</property>
    <property name="astream">0</property>
    <property name="shotcut:skipConvert">1</property>
    <property name="shotcut:bins">Soundeffects</property>
    <property name="xml">was here</property>
    <property name="shotcut:hash">a6a1f3f1b9aec7f1fe2853eecf0b01e9</property>
    <property name="shotcut:caption">heartbeat-sfx-320981.mp3</property>
  </chain>
  <playlist id="playlist1">
    <property name="shotcut:audio">1</property>
    <property name="shotcut:name">A1</property>
    <entry producer="chain23" in="00:00:00.000" out="00:00:06.100"/>
    <blank length="00:00:21.750"/>
    <entry producer="chain24" in="00:00:00.000" out="00:00:04.483"/>
    <blank length="00:00:10.900"/>
    <entry producer="chain25" in="00:00:00.000" out="00:00:07.183"/>
  </playlist>
  <chain id="chain26" out="00:00:00.633">
    <property name="length">00:00:00.650</property>
    <property name="eof">pause</property>
    <property name="resource">/home/kactuz/Documents/Github/Projekt-Systemutveckling/Shotcut - Trailer/Assets/Soundeffect/click-tap-computer-mouse-352734.mp3</property>
    <property name="mlt_service">avformat-novalidate</property>
    <property name="meta.media.nb_streams">1</property>
    <property name="meta.media.0.stream.type">audio</property>
    <property name="meta.media.0.codec.sample_fmt">fltp</property>
    <property name="meta.media.0.codec.sample_rate">48000</property>
    <property name="meta.media.0.codec.channels">2</property>
    <property name="meta.media.0.codec.layout">stereo</property>
    <property name="meta.media.0.codec.name">mp3float</property>
    <property name="meta.media.0.codec.long_name">MP3 (MPEG audio layer 3)</property>
    <property name="meta.media.0.codec.bit_rate">256000</property>
    <property name="seekable">1</property>
    <property name="audio_index">0</property>
    <property name="video_index">-1</property>
    <property name="creation_time">2025-06-02T10:39:18</property>
    <property name="astream">0</property>
    <property name="shotcut:skipConvert">1</property>
    <property name="shotcut:bins">Soundeffects</property>
    <property name="xml">was here</property>
    <property name="shotcut:hash">2e34491803e59ec8067485689c9c29e3</property>
    <property name="shotcut:caption">click-tap-computer-mouse-352734.mp3</property>
  </chain>
  <chain id="chain27" out="00:00:00.633">
    <property name="length">00:00:00.650</property>
    <property name="eof">pause</property>
    <property name="resource">/home/kactuz/Documents/Github/Projekt-Systemutveckling/Shotcut - Trailer/Assets/Soundeffect/click-tap-computer-mouse-352734.mp3</property>
    <property name="mlt_service">avformat-novalidate</property>
    <property name="meta.media.nb_streams">1</property>
    <property name="meta.media.0.stream.type">audio</property>
    <property name="meta.media.0.codec.sample_fmt">fltp</property>
    <property name="meta.media.0.codec.sample_rate">48000</property>
    <property name="meta.media.0.codec.channels">2</property>
    <property name="meta.media.0.codec.layout">stereo</property>
    <property name="meta.media.0.codec.name">mp3float</property>
    <property name="meta.media.0.codec.long_name">MP3 (MPEG audio layer 3)</property>
    <property name="meta.media.0.codec.bit_rate">256000</property>
    <property name="seekable">1</property>
    <property name="audio_index">0</property>
    <property name="video_index">-1</property>
    <property name="creation_time">2025-06-02T10:39:18</property>
    <property name="astream">0</property>
    <property name="shotcut:skipConvert">1</property>
    <property name="shotcut:bins">Soundeffects</property>
    <property name="xml">was here</property>
    <property name="shotcut:hash">2e34491803e59ec8067485689c9c29e3</property>
    <property name="shotcut:caption">click-tap-computer-mouse-352734.mp3</property>
  </chain>
  <chain id="chain28" out="00:00:00.633">
    <property name="length">00:00:00.650</property>
    <property name="eof">pause</property>
    <property name="resource">/home/kactuz/Documents/Github/Projekt-Systemutveckling/Shotcut - Trailer/Assets/Soundeffect/click-tap-computer-mouse-352734.mp3</property>
    <property name="mlt_service">avformat-novalidate</property>
    <property name="meta.media.nb_streams">1</property>
    <property name="meta.media.0.stream.type">audio</property>
    <property name="meta.media.0.codec.sample_fmt">fltp</property>
    <property name="meta.media.0.codec.sample_rate">48000</property>
    <property name="meta.media.0.codec.channels">2</property>
    <property name="meta.media.0.codec.layout">stereo</property>
    <property name="meta.media.0.codec.name">mp3float</property>
    <property name="meta.media.0.codec.long_name">MP3 (MPEG audio layer 3)</property>
    <property name="meta.media.0.codec.bit_rate">256000</property>
    <property name="seekable">1</property>
    <property name="audio_index">0</property>
    <property name="video_index">-1</property>
    <property name="creation_time">2025-06-02T10:39:18</property>
    <property name="astream">0</property>
    <property name="shotcut:skipConvert">1</property>
    <property name="shotcut:bins">Soundeffects</property>
    <property name="xml">was here</property>
    <property name="shotcut:hash">2e34491803e59ec8067485689c9c29e3</property>
    <property name="shotcut:caption">click-tap-computer-mouse-352734.mp3</property>
  </chain>
  <chain id="chain29" out="00:00:00.633">
    <property name="length">00:00:00.650</property>
    <property name="eof">pause</property>
    <property name="resource">/home/kactuz/Documents/Github/Projekt-Systemutveckling/Shotcut - Trailer/Assets/Soundeffect/click-tap-computer-mouse-352734.mp3</property>
    <property name="mlt_service">avformat-novalidate</property>
    <property name="meta.media.nb_streams">1</property>
    <property name="meta.media.0.stream.type">audio</property>
    <property name="meta.media.0.codec.sample_fmt">fltp</property>
    <property name="meta.media.0.codec.sample_rate">48000</property>
    <property name="meta.media.0.codec.channels">2</property>
    <property name="meta.media.0.codec.layout">stereo</property>
    <property name="meta.media.0.codec.name">mp3float</property>
    <property name="meta.media.0.codec.long_name">MP3 (MPEG audio layer 3)</property>
    <property name="meta.media.0.codec.bit_rate">256000</property>
    <property name="seekable">1</property>
    <property name="audio_index">0</property>
    <property name="video_index">-1</property>
    <property name="creation_time">2025-06-02T10:39:18</property>
    <property name="astream">0</property>
    <property name="shotcut:skipConvert">1</property>
    <property name="shotcut:bins">Soundeffects</property>
    <property name="xml">was here</property>
    <property name="shotcut:hash">2e34491803e59ec8067485689c9c29e3</property>
    <property name="shotcut:caption">click-tap-computer-mouse-352734.mp3</property>
  </chain>
  <chain id="chain30" out="00:00:00.633">
    <property name="length">00:00:00.650</property>
    <property name="eof">pause</property>
    <property name="resource">/home/kactuz/Documents/Github/Projekt-Systemutveckling/Shotcut - Trailer/Assets/Soundeffect/click-tap-computer-mouse-352734.mp3</property>
    <property name="mlt_service">avformat-novalidate</property>
    <property name="meta.media.nb_streams">1</property>
    <property name="meta.media.0.stream.type">audio</property>
    <property name="meta.media.0.codec.sample_fmt">fltp</property>
    <property name="meta.media.0.codec.sample_rate">48000</property>
    <property name="meta.media.0.codec.channels">2</property>
    <property name="meta.media.0.codec.layout">stereo</property>
    <property name="meta.media.0.codec.name">mp3float</property>
    <property name="meta.media.0.codec.long_name">MP3 (MPEG audio layer 3)</property>
    <property name="meta.media.0.codec.bit_rate">256000</property>
    <property name="seekable">1</property>
    <property name="audio_index">0</property>
    <property name="video_index">-1</property>
    <property name="creation_time">2025-06-02T10:39:18</property>
    <property name="astream">0</property>
    <property name="shotcut:skipConvert">1</property>
    <property name="shotcut:bins">Soundeffects</property>
    <property name="xml">was here</property>
    <property name="shotcut:hash">2e34491803e59ec8067485689c9c29e3</property>
    <property name="shotcut:caption">click-tap-computer-mouse-352734.mp3</property>
  </chain>
  <chain id="chain31" out="00:00:00.633">
    <property name="length">00:00:00.650</property>
    <property name="eof">pause</property>
    <property name="resource">/home/kactuz/Documents/Github/Projekt-Systemutveckling/Shotcut - Trailer/Assets/Soundeffect/click-tap-computer-mouse-352734.mp3</property>
    <property name="mlt_service">avformat-novalidate</property>
    <property name="meta.media.nb_streams">1</property>
    <property name="meta.media.0.stream.type">audio</property>
    <property name="meta.media.0.codec.sample_fmt">fltp</property>
    <property name="meta.media.0.codec.sample_rate">48000</property>
    <property name="meta.media.0.codec.channels">2</property>
    <property name="meta.media.0.codec.layout">stereo</property>
    <property name="meta.media.0.codec.name">mp3float</property>
    <property name="meta.media.0.codec.long_name">MP3 (MPEG audio layer 3)</property>
    <property name="meta.media.0.codec.bit_rate">256000</property>
    <property name="seekable">1</property>
    <property name="audio_index">0</property>
    <property name="video_index">-1</property>
    <property name="creation_time">2025-06-02T10:39:18</property>
    <property name="astream">0</property>
    <property name="shotcut:skipConvert">1</property>
    <property name="shotcut:bins">Soundeffects</property>
    <property name="xml">was here</property>
    <property name="shotcut:hash">2e34491803e59ec8067485689c9c29e3</property>
    <property name="shotcut:caption">click-tap-computer-mouse-352734.mp3</property>
  </chain>
  <chain id="chain32" out="00:00:00.633">
    <property name="length">00:00:00.650</property>
    <property name="eof">pause</property>
    <property name="resource">/home/kactuz/Documents/Github/Projekt-Systemutveckling/Shotcut - Trailer/Assets/Soundeffect/click-tap-computer-mouse-352734.mp3</property>
    <property name="mlt_service">avformat-novalidate</property>
    <property name="meta.media.nb_streams">1</property>
    <property name="meta.media.0.stream.type">audio</property>
    <property name="meta.media.0.codec.sample_fmt">fltp</property>
    <property name="meta.media.0.codec.sample_rate">48000</property>
    <property name="meta.media.0.codec.channels">2</property>
    <property name="meta.media.0.codec.layout">stereo</property>
    <property name="meta.media.0.codec.name">mp3float</property>
    <property name="meta.media.0.codec.long_name">MP3 (MPEG audio layer 3)</property>
    <property name="meta.media.0.codec.bit_rate">256000</property>
    <property name="seekable">1</property>
    <property name="audio_index">0</property>
    <property name="video_index">-1</property>
    <property name="creation_time">2025-06-02T10:39:18</property>
    <property name="astream">0</property>
    <property name="shotcut:skipConvert">1</property>
    <property name="shotcut:bins">Soundeffects</property>
    <property name="xml">was here</property>
    <property name="shotcut:hash">2e34491803e59ec8067485689c9c29e3</property>
    <property name="shotcut:caption">click-tap-computer-mouse-352734.mp3</property>
  </chain>
  <chain id="chain33" out="00:00:00.633">
    <property name="length">00:00:00.650</property>
    <property name="eof">pause</property>
    <property name="resource">/home/kactuz/Documents/Github/Projekt-Systemutveckling/Shotcut - Trailer/Assets/Soundeffect/click-tap-computer-mouse-352734.mp3</property>
    <property name="mlt_service">avformat-novalidate</property>
    <property name="meta.media.nb_streams">1</property>
    <property name="meta.media.0.stream.type">audio</property>
    <property name="meta.media.0.codec.sample_fmt">fltp</property>
    <property name="meta.media.0.codec.sample_rate">48000</property>
    <property name="meta.media.0.codec.channels">2</property>
    <property name="meta.media.0.codec.layout">stereo</property>
    <property name="meta.media.0.codec.name">mp3float</property>
    <property name="meta.media.0.codec.long_name">MP3 (MPEG audio layer 3)</property>
    <property name="meta.media.0.codec.bit_rate">256000</property>
    <property name="seekable">1</property>
    <property name="audio_index">0</property>
    <property name="video_index">-1</property>
    <property name="creation_time">2025-06-02T10:39:18</property>
    <property name="astream">0</property>
    <property name="shotcut:skipConvert">1</property>
    <property name="shotcut:bins">Soundeffects</property>
    <property name="xml">was here</property>
    <property name="shotcut:hash">2e34491803e59ec8067485689c9c29e3</property>
    <property name="shotcut:caption">click-tap-computer-mouse-352734.mp3</property>
  </chain>
  <chain id="chain34" out="00:00:00.633">
    <property name="length">00:00:00.650</property>
    <property name="eof">pause</property>
    <property name="resource">/home/kactuz/Documents/Github/Projekt-Systemutveckling/Shotcut - Trailer/Assets/Soundeffect/click-tap-computer-mouse-352734.mp3</property>
    <property name="mlt_service">avformat-novalidate</property>
    <property name="meta.media.nb_streams">1</property>
    <property name="meta.media.0.stream.type">audio</property>
    <property name="meta.media.0.codec.sample_fmt">fltp</property>
    <property name="meta.media.0.codec.sample_rate">48000</property>
    <property name="meta.media.0.codec.channels">2</property>
    <property name="meta.media.0.codec.layout">stereo</property>
    <property name="meta.media.0.codec.name">mp3float</property>
    <property name="meta.media.0.codec.long_name">MP3 (MPEG audio layer 3)</property>
    <property name="meta.media.0.codec.bit_rate">256000</property>
    <property name="seekable">1</property>
    <property name="audio_index">0</property>
    <property name="video_index">-1</property>
    <property name="creation_time">2025-06-02T10:39:18</property>
    <property name="astream">0</property>
    <property name="shotcut:skipConvert">1</property>
    <property name="shotcut:bins">Soundeffects</property>
    <property name="xml">was here</property>
    <property name="shotcut:hash">2e34491803e59ec8067485689c9c29e3</property>
    <property name="shotcut:caption">click-tap-computer-mouse-352734.mp3</property>
  </chain>
  <chain id="chain35" out="00:00:00.633">
    <property name="length">00:00:00.650</property>
    <property name="eof">pause</property>
    <property name="resource">/home/kactuz/Documents/Github/Projekt-Systemutveckling/Shotcut - Trailer/Assets/Soundeffect/click-tap-computer-mouse-352734.mp3</property>
    <property name="mlt_service">avformat-novalidate</property>
    <property name="meta.media.nb_streams">1</property>
    <property name="meta.media.0.stream.type">audio</property>
    <property name="meta.media.0.codec.sample_fmt">fltp</property>
    <property name="meta.media.0.codec.sample_rate">48000</property>
    <property name="meta.media.0.codec.channels">2</property>
    <property name="meta.media.0.codec.layout">stereo</property>
    <property name="meta.media.0.codec.name">mp3float</property>
    <property name="meta.media.0.codec.long_name">MP3 (MPEG audio layer 3)</property>
    <property name="meta.media.0.codec.bit_rate">256000</property>
    <property name="seekable">1</property>
    <property name="audio_index">0</property>
    <property name="video_index">-1</property>
    <property name="creation_time">2025-06-02T10:39:18</property>
    <property name="astream">0</property>
    <property name="shotcut:skipConvert">1</property>
    <property name="shotcut:bins">Soundeffects</property>
    <property name="xml">was here</property>
    <property name="shotcut:hash">2e34491803e59ec8067485689c9c29e3</property>
    <property name="shotcut:caption">click-tap-computer-mouse-352734.mp3</property>
  </chain>
  <chain id="chain36" out="00:00:00.633">
    <property name="length">00:00:00.650</property>
    <property name="eof">pause</property>
    <property name="resource">/home/kactuz/Documents/Github/Projekt-Systemutveckling/Shotcut - Trailer/Assets/Soundeffect/click-tap-computer-mouse-352734.mp3</property>
    <property name="mlt_service">avformat-novalidate</property>
    <property name="meta.media.nb_streams">1</property>
    <property name="meta.media.0.stream.type">audio</property>
    <property name="meta.media.0.codec.sample_fmt">fltp</property>
    <property name="meta.media.0.codec.sample_rate">48000</property>
    <property name="meta.media.0.codec.channels">2</property>
    <property name="meta.media.0.codec.layout">stereo</property>
    <property name="meta.media.0.codec.name">mp3float</property>
    <property name="meta.media.0.codec.long_name">MP3 (MPEG audio layer 3)</property>
    <property name="meta.media.0.codec.bit_rate">256000</property>
    <property name="seekable">1</property>
    <property name="audio_index">0</property>
    <property name="video_index">-1</property>
    <property name="creation_time">2025-06-02T10:39:18</property>
    <property name="astream">0</property>
    <property name="shotcut:skipConvert">1</property>
    <property name="shotcut:bins">Soundeffects</property>
    <property name="xml">was here</property>
    <property name="shotcut:hash">2e34491803e59ec8067485689c9c29e3</property>
    <property name="shotcut:caption">click-tap-computer-mouse-352734.mp3</property>
  </chain>
  <chain id="chain37" out="00:00:00.633">
    <property name="length">00:00:00.650</property>
    <property name="eof">pause</property>
    <property name="resource">/home/kactuz/Documents/Github/Projekt-Systemutveckling/Shotcut - Trailer/Assets/Soundeffect/click-tap-computer-mouse-352734.mp3</property>
    <property name="mlt_service">avformat-novalidate</property>
    <property name="meta.media.nb_streams">1</property>
    <property name="meta.media.0.stream.type">audio</property>
    <property name="meta.media.0.codec.sample_fmt">fltp</property>
    <property name="meta.media.0.codec.sample_rate">48000</property>
    <property name="meta.media.0.codec.channels">2</property>
    <property name="meta.media.0.codec.layout">stereo</property>
    <property name="meta.media.0.codec.name">mp3float</property>
    <property name="meta.media.0.codec.long_name">MP3 (MPEG audio layer 3)</property>
    <property name="meta.media.0.codec.bit_rate">256000</property>
    <property name="seekable">1</property>
    <property name="audio_index">0</property>
    <property name="video_index">-1</property>
    <property name="creation_time">2025-06-02T10:39:18</property>
    <property name="astream">0</property>
    <property name="shotcut:skipConvert">1</property>
    <property name="shotcut:bins">Soundeffects</property>
    <property name="xml">was here</property>
    <property name="shotcut:hash">2e34491803e59ec8067485689c9c29e3</property>
    <property name="shotcut:caption">click-tap-computer-mouse-352734.mp3</property>
  </chain>
  <chain id="chain38" out="00:00:00.633">
    <property name="length">00:00:00.650</property>
    <property name="eof">pause</property>
    <property name="resource">/home/kactuz/Documents/Github/Projekt-Systemutveckling/Shotcut - Trailer/Assets/Soundeffect/click-tap-computer-mouse-352734.mp3</property>
    <property name="mlt_service">avformat-novalidate</property>
    <property name="meta.media.nb_streams">1</property>
    <property name="meta.media.0.stream.type">audio</property>
    <property name="meta.media.0.codec.sample_fmt">fltp</property>
    <property name="meta.media.0.codec.sample_rate">48000</property>
    <property name="meta.media.0.codec.channels">2</property>
    <property name="meta.media.0.codec.layout">stereo</property>
    <property name="meta.media.0.codec.name">mp3float</property>
    <property name="meta.media.0.codec.long_name">MP3 (MPEG audio layer 3)</property>
    <property name="meta.media.0.codec.bit_rate">256000</property>
    <property name="seekable">1</property>
    <property name="audio_index">0</property>
    <property name="video_index">-1</property>
    <property name="creation_time">2025-06-02T10:39:18</property>
    <property name="astream">0</property>
    <property name="shotcut:skipConvert">1</property>
    <property name="shotcut:bins">Soundeffects</property>
    <property name="xml">was here</property>
    <property name="shotcut:hash">2e34491803e59ec8067485689c9c29e3</property>
    <property name="shotcut:caption">click-tap-computer-mouse-352734.mp3</property>
  </chain>
  <chain id="chain39" out="00:00:00.633">
    <property name="length">00:00:00.650</property>
    <property name="eof">pause</property>
    <property name="resource">/home/kactuz/Documents/Github/Projekt-Systemutveckling/Shotcut - Trailer/Assets/Soundeffect/click-tap-computer-mouse-352734.mp3</property>
    <property name="mlt_service">avformat-novalidate</property>
    <property name="meta.media.nb_streams">1</property>
    <property name="meta.media.0.stream.type">audio</property>
    <property name="meta.media.0.codec.sample_fmt">fltp</property>
    <property name="meta.media.0.codec.sample_rate">48000</property>
    <property name="meta.media.0.codec.channels">2</property>
    <property name="meta.media.0.codec.layout">stereo</property>
    <property name="meta.media.0.codec.name">mp3float</property>
    <property name="meta.media.0.codec.long_name">MP3 (MPEG audio layer 3)</property>
    <property name="meta.media.0.codec.bit_rate">256000</property>
    <property name="seekable">1</property>
    <property name="audio_index">0</property>
    <property name="video_index">-1</property>
    <property name="creation_time">2025-06-02T10:39:18</property>
    <property name="astream">0</property>
    <property name="shotcut:skipConvert">1</property>
    <property name="shotcut:bins">Soundeffects</property>
    <property name="xml">was here</property>
    <property name="shotcut:hash">2e34491803e59ec8067485689c9c29e3</property>
    <property name="shotcut:caption">click-tap-computer-mouse-352734.mp3</property>
  </chain>
  <chain id="chain40" out="00:00:00.633">
    <property name="length">00:00:00.650</property>
    <property name="eof">pause</property>
    <property name="resource">/home/kactuz/Documents/Github/Projekt-Systemutveckling/Shotcut - Trailer/Assets/Soundeffect/click-tap-computer-mouse-352734.mp3</property>
    <property name="mlt_service">avformat-novalidate</property>
    <property name="meta.media.nb_streams">1</property>
    <property name="meta.media.0.stream.type">audio</property>
    <property name="meta.media.0.codec.sample_fmt">fltp</property>
    <property name="meta.media.0.codec.sample_rate">48000</property>
    <property name="meta.media.0.codec.channels">2</property>
    <property name="meta.media.0.codec.layout">stereo</property>
    <property name="meta.media.0.codec.name">mp3float</property>
    <property name="meta.media.0.codec.long_name">MP3 (MPEG audio layer 3)</property>
    <property name="meta.media.0.codec.bit_rate">256000</property>
    <property name="seekable">1</property>
    <property name="audio_index">0</property>
    <property name="video_index">-1</property>
    <property name="creation_time">2025-06-02T10:39:18</property>
    <property name="astream">0</property>
    <property name="shotcut:skipConvert">1</property>
    <property name="shotcut:bins">Soundeffects</property>
    <property name="xml">was here</property>
    <property name="shotcut:hash">2e34491803e59ec8067485689c9c29e3</property>
    <property name="shotcut:caption">click-tap-computer-mouse-352734.mp3</property>
  </chain>
  <chain id="chain41" out="00:00:00.633">
    <property name="length">00:00:00.650</property>
    <property name="eof">pause</property>
    <property name="resource">/home/kactuz/Documents/Github/Projekt-Systemutveckling/Shotcut - Trailer/Assets/Soundeffect/click-tap-computer-mouse-352734.mp3</property>
    <property name="mlt_service">avformat-novalidate</property>
    <property name="meta.media.nb_streams">1</property>
    <property name="meta.media.0.stream.type">audio</property>
    <property name="meta.media.0.codec.sample_fmt">fltp</property>
    <property name="meta.media.0.codec.sample_rate">48000</property>
    <property name="meta.media.0.codec.channels">2</property>
    <property name="meta.media.0.codec.layout">stereo</property>
    <property name="meta.media.0.codec.name">mp3float</property>
    <property name="meta.media.0.codec.long_name">MP3 (MPEG audio layer 3)</property>
    <property name="meta.media.0.codec.bit_rate">256000</property>
    <property name="seekable">1</property>
    <property name="audio_index">0</property>
    <property name="video_index">-1</property>
    <property name="creation_time">2025-06-02T10:39:18</property>
    <property name="astream">0</property>
    <property name="shotcut:skipConvert">1</property>
    <property name="shotcut:bins">Soundeffects</property>
    <property name="xml">was here</property>
    <property name="shotcut:hash">2e34491803e59ec8067485689c9c29e3</property>
    <property name="shotcut:caption">click-tap-computer-mouse-352734.mp3</property>
  </chain>
  <chain id="chain42" out="00:00:00.633">
    <property name="length">00:00:00.650</property>
    <property name="eof">pause</property>
    <property name="resource">/home/kactuz/Documents/Github/Projekt-Systemutveckling/Shotcut - Trailer/Assets/Soundeffect/click-tap-computer-mouse-352734.mp3</property>
    <property name="mlt_service">avformat-novalidate</property>
    <property name="meta.media.nb_streams">1</property>
    <property name="meta.media.0.stream.type">audio</property>
    <property name="meta.media.0.codec.sample_fmt">fltp</property>
    <property name="meta.media.0.codec.sample_rate">48000</property>
    <property name="meta.media.0.codec.channels">2</property>
    <property name="meta.media.0.codec.layout">stereo</property>
    <property name="meta.media.0.codec.name">mp3float</property>
    <property name="meta.media.0.codec.long_name">MP3 (MPEG audio layer 3)</property>
    <property name="meta.media.0.codec.bit_rate">256000</property>
    <property name="seekable">1</property>
    <property name="audio_index">0</property>
    <property name="video_index">-1</property>
    <property name="creation_time">2025-06-02T10:39:18</property>
    <property name="astream">0</property>
    <property name="shotcut:skipConvert">1</property>
    <property name="shotcut:bins">Soundeffects</property>
    <property name="xml">was here</property>
    <property name="shotcut:hash">2e34491803e59ec8067485689c9c29e3</property>
    <property name="shotcut:caption">click-tap-computer-mouse-352734.mp3</property>
  </chain>
  <chain id="chain43" out="00:00:00.633">
    <property name="length">00:00:00.650</property>
    <property name="eof">pause</property>
    <property name="resource">/home/kactuz/Documents/Github/Projekt-Systemutveckling/Shotcut - Trailer/Assets/Soundeffect/click-tap-computer-mouse-352734.mp3</property>
    <property name="mlt_service">avformat-novalidate</property>
    <property name="meta.media.nb_streams">1</property>
    <property name="meta.media.0.stream.type">audio</property>
    <property name="meta.media.0.codec.sample_fmt">fltp</property>
    <property name="meta.media.0.codec.sample_rate">48000</property>
    <property name="meta.media.0.codec.channels">2</property>
    <property name="meta.media.0.codec.layout">stereo</property>
    <property name="meta.media.0.codec.name">mp3float</property>
    <property name="meta.media.0.codec.long_name">MP3 (MPEG audio layer 3)</property>
    <property name="meta.media.0.codec.bit_rate">256000</property>
    <property name="seekable">1</property>
    <property name="audio_index">0</property>
    <property name="video_index">-1</property>
    <property name="creation_time">2025-06-02T10:39:18</property>
    <property name="astream">0</property>
    <property name="shotcut:skipConvert">1</property>
    <property name="shotcut:bins">Soundeffects</property>
    <property name="xml">was here</property>
    <property name="shotcut:hash">2e34491803e59ec8067485689c9c29e3</property>
    <property name="shotcut:caption">click-tap-computer-mouse-352734.mp3</property>
  </chain>
  <chain id="chain44" out="00:00:00.633">
    <property name="length">00:00:00.650</property>
    <property name="eof">pause</property>
    <property name="resource">/home/kactuz/Documents/Github/Projekt-Systemutveckling/Shotcut - Trailer/Assets/Soundeffect/click-tap-computer-mouse-352734.mp3</property>
    <property name="mlt_service">avformat-novalidate</property>
    <property name="meta.media.nb_streams">1</property>
    <property name="meta.media.0.stream.type">audio</property>
    <property name="meta.media.0.codec.sample_fmt">fltp</property>
    <property name="meta.media.0.codec.sample_rate">48000</property>
    <property name="meta.media.0.codec.channels">2</property>
    <property name="meta.media.0.codec.layout">stereo</property>
    <property name="meta.media.0.codec.name">mp3float</property>
    <property name="meta.media.0.codec.long_name">MP3 (MPEG audio layer 3)</property>
    <property name="meta.media.0.codec.bit_rate">256000</property>
    <property name="seekable">1</property>
    <property name="audio_index">0</property>
    <property name="video_index">-1</property>
    <property name="creation_time">2025-06-02T10:39:18</property>
    <property name="astream">0</property>
    <property name="shotcut:skipConvert">1</property>
    <property name="shotcut:bins">Soundeffects</property>
    <property name="xml">was here</property>
    <property name="shotcut:hash">2e34491803e59ec8067485689c9c29e3</property>
    <property name="shotcut:caption">click-tap-computer-mouse-352734.mp3</property>
  </chain>
  <chain id="chain45" out="00:00:02.067">
    <property name="length">00:00:02.083</property>
    <property name="eof">pause</property>
    <property name="resource">/home/kactuz/Documents/Github/Projekt-Systemutveckling/Shotcut - Trailer/Assets/Soundeffect/impact-cinematic-boom-5-352465.mp3</property>
    <property name="mlt_service">avformat-novalidate</property>
    <property name="meta.media.nb_streams">1</property>
    <property name="meta.media.0.stream.type">audio</property>
    <property name="meta.media.0.codec.sample_fmt">fltp</property>
    <property name="meta.media.0.codec.sample_rate">48000</property>
    <property name="meta.media.0.codec.channels">2</property>
    <property name="meta.media.0.codec.layout">stereo</property>
    <property name="meta.media.0.codec.name">mp3float</property>
    <property name="meta.media.0.codec.long_name">MP3 (MPEG audio layer 3)</property>
    <property name="meta.media.0.codec.bit_rate">256000</property>
    <property name="seekable">1</property>
    <property name="audio_index">0</property>
    <property name="video_index">-1</property>
    <property name="creation_time">2025-06-02T10:39:33</property>
    <property name="astream">0</property>
    <property name="shotcut:skipConvert">1</property>
    <property name="shotcut:bins">Soundeffects</property>
    <property name="xml">was here</property>
    <property name="shotcut:hash">44187fffd5a1bc43188de3a2c1392ea8</property>
    <property name="shotcut:caption">impact-cinematic-boom-5-352465.mp3</property>
  </chain>
  <chain id="chain46" out="00:00:12.000">
    <property name="length">00:00:12.017</property>
    <property name="eof">pause</property>
    <property name="resource">/home/kactuz/Documents/Github/Projekt-Systemutveckling/Shotcut - Trailer/Assets/Soundeffect/riser-wildfire-285209.mp3</property>
    <property name="mlt_service">avformat-novalidate</property>
    <property name="meta.media.nb_streams">1</property>
    <property name="meta.media.0.stream.type">audio</property>
    <property name="meta.media.0.codec.sample_fmt">fltp</property>
    <property name="meta.media.0.codec.sample_rate">48000</property>
    <property name="meta.media.0.codec.channels">2</property>
    <property name="meta.media.0.codec.layout">stereo</property>
    <property name="meta.media.0.codec.name">mp3float</property>
    <property name="meta.media.0.codec.long_name">MP3 (MPEG audio layer 3)</property>
    <property name="meta.media.0.codec.bit_rate">256000</property>
    <property name="seekable">1</property>
    <property name="audio_index">0</property>
    <property name="video_index">-1</property>
    <property name="creation_time">2025-06-02T10:37:27</property>
    <property name="astream">0</property>
    <property name="shotcut:skipConvert">1</property>
    <property name="shotcut:bins">Soundeffects</property>
    <property name="xml">was here</property>
    <property name="shotcut:hash">b73cf4c95fa49bf1432b61206bb9f718</property>
    <property name="shotcut:caption">riser-wildfire-285209.mp3</property>
    <filter id="filter4" out="00:00:07.050">
      <property name="window">75</property>
      <property name="max_gain">20dB</property>
      <property name="level">-22</property>
      <property name="mlt_service">volume</property>
    </filter>
  </chain>
  <chain id="chain47" out="00:00:15.433">
    <property name="length">00:00:15.450</property>
    <property name="eof">pause</property>
    <property name="resource">/home/kactuz/Documents/Github/Projekt-Systemutveckling/Shotcut - Trailer/Assets/Soundeffect/cell-phone-vibration-352298.mp3</property>
    <property name="mlt_service">avformat-novalidate</property>
    <property name="meta.media.nb_streams">1</property>
    <property name="meta.media.0.stream.type">audio</property>
    <property name="meta.media.0.codec.sample_fmt">fltp</property>
    <property name="meta.media.0.codec.sample_rate">48000</property>
    <property name="meta.media.0.codec.channels">2</property>
    <property name="meta.media.0.codec.layout">stereo</property>
    <property name="meta.media.0.codec.name">mp3float</property>
    <property name="meta.media.0.codec.long_name">MP3 (MPEG audio layer 3)</property>
    <property name="meta.media.0.codec.bit_rate">256000</property>
    <property name="seekable">1</property>
    <property name="audio_index">0</property>
    <property name="video_index">-1</property>
    <property name="creation_time">2025-06-02T10:44:40</property>
    <property name="astream">0</property>
    <property name="shotcut:skipConvert">1</property>
    <property name="shotcut:bins">Soundeffects</property>
    <property name="xml">was here</property>
    <property name="shotcut:hash">d5be9d6ac202f220383e2fbdb1771134</property>
    <property name="shotcut:caption">cell-phone-vibration-352298.mp3</property>
  </chain>
  <playlist id="playlist2">
    <property name="shotcut:audio">1</property>
    <property name="shotcut:name">A2</property>
    <blank length="00:00:02.917"/>
    <entry producer="chain26" in="00:00:00.000" out="00:00:00.633"/>
    <blank length="00:00:00.267"/>
    <entry producer="chain27" in="00:00:00.000" out="00:00:00.400"/>
    <entry producer="chain28" in="00:00:00.000" out="00:00:00.633"/>
    <blank length="00:00:00.567"/>
    <entry producer="chain29" in="00:00:00.000" out="00:00:00.633"/>
    <blank length="00:00:01.567"/>
    <entry producer="chain30" in="00:00:00.000" out="00:00:00.633"/>
    <blank length="00:00:01.550"/>
    <entry producer="chain31" in="00:00:00.117" out="00:00:00.233"/>
    <blank length="00:00:00.533"/>
    <entry producer="chain32" in="00:00:00.117" out="00:00:00.233"/>
    <blank length="00:00:00.583"/>
    <entry producer="chain33" in="00:00:00.117" out="00:00:00.233"/>
    <blank length="00:00:00.400"/>
    <entry producer="chain34" in="00:00:00.117" out="00:00:00.233"/>
    <blank length="00:00:05.633"/>
    <entry producer="chain35" in="00:00:00.117" out="00:00:00.233"/>
    <blank length="00:00:01.533"/>
    <entry producer="chain36" in="00:00:00.117" out="00:00:00.233"/>
    <blank length="00:00:00.783"/>
    <entry producer="chain37" in="00:00:00.117" out="00:00:00.233"/>
    <blank length="00:00:01.250"/>
    <entry producer="chain38" in="00:00:00.117" out="00:00:00.233"/>
    <blank length="00:00:00.517"/>
    <entry producer="chain39" in="00:00:00.117" out="00:00:00.233"/>
    <blank length="00:00:00.833"/>
    <entry producer="chain40" in="00:00:00.117" out="00:00:00.233"/>
    <blank length="00:00:00.467"/>
    <entry producer="chain41" in="00:00:00.117" out="00:00:00.233"/>
    <blank length="00:00:00.383"/>
    <entry producer="chain42" in="00:00:00.117" out="00:00:00.233"/>
    <blank length="00:00:00.467"/>
    <entry producer="chain43" in="00:00:00.117" out="00:00:00.233"/>
    <blank length="00:00:00.550"/>
    <entry producer="chain44" in="00:00:00.117" out="00:00:00.233"/>
    <blank length="00:00:03.867"/>
    <entry producer="chain45" in="00:00:00.000" out="00:00:02.067"/>
    <blank length="00:00:11.767"/>
    <entry producer="chain46" in="00:00:00.000" out="00:00:07.050"/>
    <blank length="00:00:30.933"/>
    <entry producer="chain47" in="00:00:00.000" out="00:00:07.250"/>
  </playlist>
  <producer id="producer2" in="00:00:00.000" out="03:59:59.983">
    <property name="length">04:00:00.000</property>
    <property name="eof">pause</property>
    <property name="resource">/home/kactuz/Documents/Github/Projekt-Systemutveckling/Shotcut - Trailer/Assets/Others/Black.png</property>
    <property name="ttl">1</property>
    <property name="aspect_ratio">1</property>
    <property name="meta.media.progressive">1</property>
    <property name="seekable">1</property>
    <property name="format">1</property>
    <property name="meta.media.width">640</property>
    <property name="meta.media.height">480</property>
    <property name="mlt_service">qimage</property>
    <property name="creation_time">2025-06-02T11:08:12</property>
    <property name="shotcut:skipConvert">1</property>
    <property name="shotcut:bins">Others</property>
    <property name="xml">was here</property>
    <property name="shotcut:hash">a0f3bb9b795a35398401d46e2940e41b</property>
    <property name="shotcut:caption">Black.png</property>
    <property name="meta.shotcut.vui">1</property>
    <filter id="filter5" out="00:00:00.700">
      <property name="argument">Stackitects</property>
      <property name="geometry">0 0 1280 720 1</property>
      <property name="family">Forsvarsmakten Sans Stencil</property>
      <property name="size">720</property>
      <property name="weight">700</property>
      <property name="style">normal</property>
      <property name="fgcolour">#ffffffff</property>
      <property name="bgcolour">#00000000</property>
      <property name="olcolour">#aa000000</property>
      <property name="pad">0</property>
      <property name="halign">center</property>
      <property name="valign">bottom</property>
      <property name="outline">3</property>
      <property name="opacity">1</property>
      <property name="mlt_service">dynamictext</property>
      <property name="shotcut:filter">dynamicText</property>
      <property name="shotcut:usePointSize">0</property>
      <property name="shotcut:animIn">00:00:00.000</property>
      <property name="shotcut:animOut">00:00:00.000</property>
    </filter>
  </producer>
  <producer id="producer3" in="00:00:00.000" out="03:59:59.983">
    <property name="length">04:00:00.000</property>
    <property name="eof">pause</property>
    <property name="resource">/home/kactuz/Documents/Github/Projekt-Systemutveckling/Shotcut - Trailer/Assets/Others/Black.png</property>
    <property name="ttl">1</property>
    <property name="aspect_ratio">1</property>
    <property name="meta.media.progressive">1</property>
    <property name="seekable">1</property>
    <property name="format">1</property>
    <property name="meta.media.width">640</property>
    <property name="meta.media.height">480</property>
    <property name="mlt_service">qimage</property>
    <property name="creation_time">2025-06-02T11:08:12</property>
    <property name="shotcut:skipConvert">1</property>
    <property name="shotcut:bins">Others</property>
    <property name="xml">was here</property>
    <property name="shotcut:hash">a0f3bb9b795a35398401d46e2940e41b</property>
    <property name="shotcut:caption">Black.png</property>
    <property name="meta.shotcut.vui">1</property>
    <filter id="filter6" out="00:00:01.317">
      <property name="argument">Du bestämmer
över spelet!</property>
      <property name="geometry">0 0 1280 720 1</property>
      <property name="family">Forsvarsmakten Sans Stencil</property>
      <property name="size">360</property>
      <property name="weight">700</property>
      <property name="style">normal</property>
      <property name="fgcolour">#ffffffff</property>
      <property name="bgcolour">#00000000</property>
      <property name="olcolour">#aa000000</property>
      <property name="pad">0</property>
      <property name="halign">center</property>
      <property name="valign">middle</property>
      <property name="outline">3</property>
      <property name="opacity">1</property>
      <property name="mlt_service">dynamictext</property>
      <property name="shotcut:filter">dynamicText</property>
      <property name="shotcut:usePointSize">0</property>
      <property name="shotcut:animIn">00:00:00.000</property>
      <property name="shotcut:animOut">00:00:00.000</property>
    </filter>
  </producer>
  <producer id="producer4" in="00:00:00.000" out="03:59:59.983">
    <property name="length">04:00:00.000</property>
    <property name="eof">pause</property>
    <property name="resource">/home/kactuz/Documents/Github/Projekt-Systemutveckling/Shotcut - Trailer/Assets/Others/Black.png</property>
    <property name="ttl">1</property>
    <property name="aspect_ratio">1</property>
    <property name="meta.media.progressive">1</property>
    <property name="seekable">1</property>
    <property name="format">1</property>
    <property name="meta.media.width">640</property>
    <property name="meta.media.height">480</property>
    <property name="mlt_service">qimage</property>
    <property name="creation_time">2025-06-02T11:08:12</property>
    <property name="shotcut:skipConvert">1</property>
    <property name="shotcut:bins">Others</property>
    <property name="xml">was here</property>
    <property name="shotcut:hash">a0f3bb9b795a35398401d46e2940e41b</property>
    <property name="shotcut:caption">Black.png</property>
    <property name="meta.shotcut.vui">1</property>
    <filter id="filter7" out="00:00:02.533">
      <property name="argument">Enkelt spel där du ska
skapa nya kort</property>
      <property name="geometry">0 0 1280 720 1</property>
      <property name="family">Forsvarsmakten Sans Stencil</property>
      <property name="size">360</property>
      <property name="weight">700</property>
      <property name="style">normal</property>
      <property name="fgcolour">#ffffffff</property>
      <property name="bgcolour">#00000000</property>
      <property name="olcolour">#aa000000</property>
      <property name="pad">0</property>
      <property name="halign">center</property>
      <property name="valign">middle</property>
      <property name="outline">3</property>
      <property name="opacity">1</property>
      <property name="mlt_service">dynamictext</property>
      <property name="shotcut:filter">dynamicText</property>
      <property name="shotcut:usePointSize">0</property>
      <property name="shotcut:animIn">00:00:00.000</property>
      <property name="shotcut:animOut">00:00:00.000</property>
    </filter>
  </producer>
  <producer id="producer5" in="00:00:00.000" out="03:59:59.983">
    <property name="length">04:00:00.000</property>
    <property name="eof">pause</property>
    <property name="resource">/home/kactuz/Documents/Github/Projekt-Systemutveckling/Shotcut - Trailer/Assets/Others/Black.png</property>
    <property name="ttl">1</property>
    <property name="aspect_ratio">1</property>
    <property name="meta.media.progressive">1</property>
    <property name="seekable">1</property>
    <property name="format">1</property>
    <property name="meta.media.width">640</property>
    <property name="meta.media.height">480</property>
    <property name="mlt_service">qimage</property>
    <property name="creation_time">2025-06-02T11:08:12</property>
    <property name="shotcut:skipConvert">1</property>
    <property name="shotcut:bins">Others</property>
    <property name="xml">was here</property>
    <property name="shotcut:hash">a0f3bb9b795a35398401d46e2940e41b</property>
    <property name="shotcut:caption">Black.png</property>
    <property name="meta.shotcut.vui">1</property>
    <filter id="filter8" out="00:00:02.517">
      <property name="argument">Flera slumpmäsiga events
</property>
      <property name="geometry">0 -1 1280 720 1</property>
      <property name="family">Forsvarsmakten Sans Stencil</property>
      <property name="size">360</property>
      <property name="weight">700</property>
      <property name="style">normal</property>
      <property name="fgcolour">#ffffffff</property>
      <property name="bgcolour">#00000000</property>
      <property name="olcolour">#aa000000</property>
      <property name="pad">0</property>
      <property name="halign">center</property>
      <property name="valign">middle</property>
      <property name="outline">3</property>
      <property name="opacity">1</property>
      <property name="mlt_service">dynamictext</property>
      <property name="shotcut:filter">dynamicText</property>
      <property name="shotcut:usePointSize">0</property>
      <property name="shotcut:animIn">00:00:00.000</property>
      <property name="shotcut:animOut">00:00:00.000</property>
    </filter>
  </producer>
  <producer id="producer6" in="00:00:00.000" out="03:59:59.983">
    <property name="length">04:00:00.000</property>
    <property name="eof">pause</property>
    <property name="resource">/home/kactuz/Documents/Github/Projekt-Systemutveckling/Shotcut - Trailer/Assets/Others/Black.png</property>
    <property name="ttl">1</property>
    <property name="aspect_ratio">1</property>
    <property name="meta.media.progressive">1</property>
    <property name="seekable">1</property>
    <property name="format">1</property>
    <property name="meta.media.width">640</property>
    <property name="meta.media.height">480</property>
    <property name="mlt_service">qimage</property>
    <property name="creation_time">2025-06-02T11:08:12</property>
    <property name="shotcut:skipConvert">1</property>
    <property name="shotcut:bins">Others</property>
    <property name="xml">was here</property>
    <property name="shotcut:hash">a0f3bb9b795a35398401d46e2940e41b</property>
    <property name="shotcut:caption">Black.png</property>
    <property name="meta.shotcut.vui">1</property>
    <filter id="filter9" out="00:00:00.567">
      <property name="argument">Eld,</property>
      <property name="geometry">0 -1 1280 720 1</property>
      <property name="family">Forsvarsmakten Sans Stencil</property>
      <property name="size">720</property>
      <property name="weight">700</property>
      <property name="style">normal</property>
      <property name="fgcolour">#ffffffff</property>
      <property name="bgcolour">#00000000</property>
      <property name="olcolour">#aa000000</property>
      <property name="pad">0</property>
      <property name="halign">left</property>
      <property name="valign">middle</property>
      <property name="outline">3</property>
      <property name="opacity">1</property>
      <property name="mlt_service">dynamictext</property>
      <property name="shotcut:filter">dynamicText</property>
      <property name="shotcut:usePointSize">0</property>
      <property name="shotcut:animIn">00:00:00.000</property>
      <property name="shotcut:animOut">00:00:00.000</property>
    </filter>
  </producer>
  <producer id="producer7" in="00:00:00.000" out="03:59:59.983">
    <property name="length">04:00:00.000</property>
    <property name="eof">pause</property>
    <property name="resource">/home/kactuz/Documents/Github/Projekt-Systemutveckling/Shotcut - Trailer/Assets/Others/Black.png</property>
    <property name="ttl">1</property>
    <property name="aspect_ratio">1</property>
    <property name="meta.media.progressive">1</property>
    <property name="seekable">1</property>
    <property name="format">1</property>
    <property name="meta.media.width">640</property>
    <property name="meta.media.height">480</property>
    <property name="mlt_service">qimage</property>
    <property name="creation_time">2025-06-02T11:08:12</property>
    <property name="shotcut:skipConvert">1</property>
    <property name="shotcut:bins">Others</property>
    <property name="xml">was here</property>
    <property name="shotcut:hash">a0f3bb9b795a35398401d46e2940e41b</property>
    <property name="shotcut:caption">Black.png</property>
    <property name="meta.shotcut.vui">1</property>
    <filter id="filter10" out="00:00:00.567">
      <property name="argument">Eld,
Iskalla nätter,</property>
      <property name="geometry">0 -1 1280 720 1</property>
      <property name="family">Forsvarsmakten Sans Stencil</property>
      <property name="size">360</property>
      <property name="weight">700</property>
      <property name="style">normal</property>
      <property name="fgcolour">#ffffffff</property>
      <property name="bgcolour">#00000000</property>
      <property name="olcolour">#aa000000</property>
      <property name="pad">0</property>
      <property name="halign">left</property>
      <property name="valign">middle</property>
      <property name="outline">3</property>
      <property name="opacity">1</property>
      <property name="mlt_service">dynamictext</property>
      <property name="shotcut:filter">dynamicText</property>
      <property name="shotcut:usePointSize">0</property>
      <property name="shotcut:animIn">00:00:00.000</property>
      <property name="shotcut:animOut">00:00:00.000</property>
    </filter>
  </producer>
  <producer id="producer8" in="00:00:00.000" out="03:59:59.983">
    <property name="length">04:00:00.000</property>
    <property name="eof">pause</property>
    <property name="resource">/home/kactuz/Documents/Github/Projekt-Systemutveckling/Shotcut - Trailer/Assets/Others/Black.png</property>
    <property name="ttl">1</property>
    <property name="aspect_ratio">1</property>
    <property name="meta.media.progressive">1</property>
    <property name="seekable">1</property>
    <property name="format">1</property>
    <property name="meta.media.width">640</property>
    <property name="meta.media.height">480</property>
    <property name="mlt_service">qimage</property>
    <property name="creation_time">2025-06-02T11:08:12</property>
    <property name="shotcut:skipConvert">1</property>
    <property name="shotcut:bins">Others</property>
    <property name="xml">was here</property>
    <property name="shotcut:hash">a0f3bb9b795a35398401d46e2940e41b</property>
    <property name="shotcut:caption">Black.png</property>
    <property name="meta.shotcut.vui">1</property>
    <filter id="filter11" out="00:00:00.567">
      <property name="argument">Eld,
Iskalla nätter,
Slummäsiga resursskapelser,</property>
      <property name="geometry">0 -1 1280 720 1</property>
      <property name="family">Forsvarsmakten Sans Stencil</property>
      <property name="size">240</property>
      <property name="weight">700</property>
      <property name="style">normal</property>
      <property name="fgcolour">#ffffffff</property>
      <property name="bgcolour">#00000000</property>
      <property name="olcolour">#aa000000</property>
      <property name="pad">0</property>
      <property name="halign">left</property>
      <property name="valign">middle</property>
      <property name="outline">3</property>
      <property name="opacity">1</property>
      <property name="mlt_service">dynamictext</property>
      <property name="shotcut:filter">dynamicText</property>
      <property name="shotcut:usePointSize">0</property>
      <property name="shotcut:animIn">00:00:00.000</property>
      <property name="shotcut:animOut">00:00:00.000</property>
    </filter>
  </producer>
  <producer id="producer9" in="00:00:00.000" out="03:59:59.983">
    <property name="length">04:00:00.000</property>
    <property name="eof">pause</property>
    <property name="resource">/home/kactuz/Documents/Github/Projekt-Systemutveckling/Shotcut - Trailer/Assets/Others/Black.png</property>
    <property name="ttl">1</property>
    <property name="aspect_ratio">1</property>
    <property name="meta.media.progressive">1</property>
    <property name="seekable">1</property>
    <property name="format">1</property>
    <property name="meta.media.width">640</property>
    <property name="meta.media.height">480</property>
    <property name="mlt_service">qimage</property>
    <property name="creation_time">2025-06-02T11:08:12</property>
    <property name="shotcut:skipConvert">1</property>
    <property name="shotcut:bins">Others</property>
    <property name="xml">was here</property>
    <property name="shotcut:hash">a0f3bb9b795a35398401d46e2940e41b</property>
    <property name="shotcut:caption">Black.png</property>
    <property name="meta.shotcut.vui">1</property>
    <filter id="filter12" out="00:00:00.567">
      <property name="argument">Eld,
Iskalla nätter,
Slummäsiga resursskapelser,
Och Boulders!</property>
      <property name="geometry">0 -1 1280 720 1</property>
      <property name="family">Forsvarsmakten Sans Stencil</property>
      <property name="size">180</property>
      <property name="weight">700</property>
      <property name="style">normal</property>
      <property name="fgcolour">#ffffffff</property>
      <property name="bgcolour">#00000000</property>
      <property name="olcolour">#aa000000</property>
      <property name="pad">0</property>
      <property name="halign">left</property>
      <property name="valign">middle</property>
      <property name="outline">3</property>
      <property name="opacity">1</property>
      <property name="mlt_service">dynamictext</property>
      <property name="shotcut:filter">dynamicText</property>
      <property name="shotcut:usePointSize">0</property>
      <property name="shotcut:animIn">00:00:00.000</property>
      <property name="shotcut:animOut">00:00:00.000</property>
    </filter>
  </producer>
  <producer id="producer10" in="00:00:00.000" out="03:59:59.983">
    <property name="length">04:00:00.000</property>
    <property name="eof">pause</property>
    <property name="resource">/home/kactuz/Documents/Github/Projekt-Systemutveckling/Shotcut - Trailer/Assets/Others/Black.png</property>
    <property name="ttl">1</property>
    <property name="aspect_ratio">1</property>
    <property name="meta.media.progressive">1</property>
    <property name="seekable">1</property>
    <property name="format">1</property>
    <property name="meta.media.width">640</property>
    <property name="meta.media.height">480</property>
    <property name="mlt_service">qimage</property>
    <property name="creation_time">2025-06-02T11:08:12</property>
    <property name="shotcut:skipConvert">1</property>
    <property name="shotcut:bins">Others</property>
    <property name="xml">was here</property>
    <property name="shotcut:hash">a0f3bb9b795a35398401d46e2940e41b</property>
    <property name="shotcut:caption">Black.png</property>
    <property name="meta.shotcut.vui">1</property>
    <filter id="filter13" out="00:00:02.633">
      <property name="argument">Har du vad som
krävs för att rädda
dina bybor?</property>
      <property name="geometry">0 -1 1280 720 1</property>
      <property name="family">Forsvarsmakten Sans Stencil</property>
      <property name="size">240</property>
      <property name="weight">700</property>
      <property name="style">normal</property>
      <property name="fgcolour">#ffffffff</property>
      <property name="bgcolour">#00000000</property>
      <property name="olcolour">#aa000000</property>
      <property name="pad">0</property>
      <property name="halign">center</property>
      <property name="valign">middle</property>
      <property name="outline">3</property>
      <property name="opacity">1</property>
      <property name="mlt_service">dynamictext</property>
      <property name="shotcut:filter">dynamicText</property>
      <property name="shotcut:usePointSize">0</property>
      <property name="shotcut:animIn">00:00:00.000</property>
      <property name="shotcut:animOut">00:00:00.000</property>
    </filter>
  </producer>
  <playlist id="playlist3">
    <property name="shotcut:video">1</property>
    <property name="shotcut:name">V2</property>
    <blank length="00:00:09.017"/>
    <entry producer="producer2" in="00:00:00.000" out="00:00:00.700"/>
    <blank length="00:00:02.550"/>
    <entry producer="producer3" in="00:00:00.000" out="00:00:01.317"/>
    <blank length="00:00:01.400"/>
    <entry producer="producer4" in="00:00:00.000" out="00:00:02.533"/>
    <blank length="00:00:18.950"/>
    <entry producer="producer5" in="00:00:00.000" out="00:00:02.517"/>
    <blank length="00:00:11.467"/>
    <entry producer="producer6" in="00:00:00.000" out="00:00:00.567"/>
    <entry producer="producer7" in="00:00:00.000" out="00:00:00.567"/>
    <entry producer="producer8" in="00:00:00.000" out="00:00:00.567"/>
    <entry producer="producer9" in="00:00:00.000" out="00:00:00.567"/>
    <blank length="00:00:08.350"/>
    <entry producer="producer10" in="00:00:00.000" out="00:00:02.633"/>
  </playlist>
  <playlist id="playlist4">
    <property name="shotcut:video">1</property>
    <property name="shotcut:name">V3</property>
    <blank length="00:00:00.017"/>
  </playlist>
  <chain id="chain48" out="00:00:01.450">
    <property name="length">00:00:01.467</property>
    <property name="eof">pause</property>
    <property name="resource">/home/kactuz/Documents/Github/Projekt-Systemutveckling/Shotcut - Trailer/Assets/Soundeffect/system-notification-2-352442.mp3</property>
    <property name="mlt_service">avformat-novalidate</property>
    <property name="meta.media.nb_streams">1</property>
    <property name="meta.media.0.stream.type">audio</property>
    <property name="meta.media.0.codec.sample_fmt">fltp</property>
    <property name="meta.media.0.codec.sample_rate">44100</property>
    <property name="meta.media.0.codec.channels">2</property>
    <property name="meta.media.0.codec.layout">stereo</property>
    <property name="meta.media.0.codec.name">mp3float</property>
    <property name="meta.media.0.codec.long_name">MP3 (MPEG audio layer 3)</property>
    <property name="meta.media.0.codec.bit_rate">256000</property>
    <property name="seekable">1</property>
    <property name="audio_index">0</property>
    <property name="video_index">-1</property>
    <property name="creation_time">2025-06-02T10:39:41</property>
    <property name="astream">0</property>
    <property name="shotcut:skipConvert">1</property>
    <property name="shotcut:bins">Soundeffects</property>
    <property name="xml">was here</property>
    <property name="shotcut:hash">d6708d5c5912e721e48c5720dbb4ffa7</property>
    <property name="shotcut:caption">system-notification-2-352442.mp3</property>
  </chain>
  <chain id="chain49" out="00:01:12.683">
    <property name="length">00:01:12.700</property>
    <property name="eof">pause</property>
    <property name="resource">/home/kactuz/Documents/Github/Projekt-Systemutveckling/Shotcut - Trailer/Assets/Songs/beethoven-concert-nr3-relaxing-classical-piano-216328.mp3</property>
    <property name="mlt_service">avformat-novalidate</property>
    <property name="meta.media.nb_streams">1</property>
    <property name="meta.media.0.stream.type">audio</property>
    <property name="meta.media.0.codec.sample_fmt">fltp</property>
    <property name="meta.media.0.codec.sample_rate">48000</property>
    <property name="meta.media.0.codec.channels">2</property>
    <property name="meta.media.0.codec.layout">stereo</property>
    <property name="meta.media.0.codec.name">mp3float</property>
    <property name="meta.media.0.codec.long_name">MP3 (MPEG audio layer 3)</property>
    <property name="meta.media.0.codec.bit_rate">256000</property>
    <property name="seekable">1</property>
    <property name="audio_index">0</property>
    <property name="video_index">-1</property>
    <property name="creation_time">2025-06-02T11:05:30</property>
    <property name="astream">0</property>
    <property name="shotcut:skipConvert">1</property>
    <property name="shotcut:bins">Songs</property>
    <property name="xml">was here</property>
    <property name="shotcut:hash">2f323030e4ab9653b1ecca169f01cb5f</property>
    <property name="shotcut:caption">beethoven-concert-nr3-relaxing-classical-piano-216328.mp3</property>
  </chain>
  <playlist id="playlist5">
    <property name="shotcut:audio">1</property>
    <property name="shotcut:name">A3</property>
    <entry producer="chain48" in="00:00:00.000" out="00:00:01.450"/>
    <blank length="00:00:04.550"/>
    <entry producer="chain49" in="00:00:00.000" out="00:01:11.983"/>
  </playlist>
  <chain id="chain50" out="00:00:02.067">
    <property name="length">00:00:02.083</property>
    <property name="eof">pause</property>
    <property name="resource">/home/kactuz/Documents/Github/Projekt-Systemutveckling/Shotcut - Trailer/Assets/Soundeffect/impact-cinematic-boom-5-352465.mp3</property>
    <property name="mlt_service">avformat-novalidate</property>
    <property name="meta.media.nb_streams">1</property>
    <property name="meta.media.0.stream.type">audio</property>
    <property name="meta.media.0.codec.sample_fmt">fltp</property>
    <property name="meta.media.0.codec.sample_rate">48000</property>
    <property name="meta.media.0.codec.channels">2</property>
    <property name="meta.media.0.codec.layout">stereo</property>
    <property name="meta.media.0.codec.name">mp3float</property>
    <property name="meta.media.0.codec.long_name">MP3 (MPEG audio layer 3)</property>
    <property name="meta.media.0.codec.bit_rate">256000</property>
    <property name="seekable">1</property>
    <property name="audio_index">0</property>
    <property name="video_index">-1</property>
    <property name="creation_time">2025-06-02T10:39:33</property>
    <property name="astream">0</property>
    <property name="shotcut:skipConvert">1</property>
    <property name="shotcut:bins">Soundeffects</property>
    <property name="xml">was here</property>
    <property name="shotcut:hash">44187fffd5a1bc43188de3a2c1392ea8</property>
    <property name="shotcut:caption">impact-cinematic-boom-5-352465.mp3</property>
  </chain>
  <chain id="chain51" out="00:00:00.633">
    <property name="length">00:00:00.650</property>
    <property name="eof">pause</property>
    <property name="resource">/home/kactuz/Documents/Github/Projekt-Systemutveckling/Shotcut - Trailer/Assets/Soundeffect/click-tap-computer-mouse-352734.mp3</property>
    <property name="mlt_service">avformat-novalidate</property>
    <property name="meta.media.nb_streams">1</property>
    <property name="meta.media.0.stream.type">audio</property>
    <property name="meta.media.0.codec.sample_fmt">fltp</property>
    <property name="meta.media.0.codec.sample_rate">48000</property>
    <property name="meta.media.0.codec.channels">2</property>
    <property name="meta.media.0.codec.layout">stereo</property>
    <property name="meta.media.0.codec.name">mp3float</property>
    <property name="meta.media.0.codec.long_name">MP3 (MPEG audio layer 3)</property>
    <property name="meta.media.0.codec.bit_rate">256000</property>
    <property name="seekable">1</property>
    <property name="audio_index">0</property>
    <property name="video_index">-1</property>
    <property name="creation_time">2025-06-02T10:39:18</property>
    <property name="astream">0</property>
    <property name="shotcut:skipConvert">1</property>
    <property name="shotcut:bins">Soundeffects</property>
    <property name="xml">was here</property>
    <property name="shotcut:hash">2e34491803e59ec8067485689c9c29e3</property>
    <property name="shotcut:caption">click-tap-computer-mouse-352734.mp3</property>
  </chain>
  <chain id="chain52" out="00:00:00.633">
    <property name="length">00:00:00.650</property>
    <property name="eof">pause</property>
    <property name="resource">/home/kactuz/Documents/Github/Projekt-Systemutveckling/Shotcut - Trailer/Assets/Soundeffect/click-tap-computer-mouse-352734.mp3</property>
    <property name="mlt_service">avformat-novalidate</property>
    <property name="meta.media.nb_streams">1</property>
    <property name="meta.media.0.stream.type">audio</property>
    <property name="meta.media.0.codec.sample_fmt">fltp</property>
    <property name="meta.media.0.codec.sample_rate">48000</property>
    <property name="meta.media.0.codec.channels">2</property>
    <property name="meta.media.0.codec.layout">stereo</property>
    <property name="meta.media.0.codec.name">mp3float</property>
    <property name="meta.media.0.codec.long_name">MP3 (MPEG audio layer 3)</property>
    <property name="meta.media.0.codec.bit_rate">256000</property>
    <property name="seekable">1</property>
    <property name="audio_index">0</property>
    <property name="video_index">-1</property>
    <property name="creation_time">2025-06-02T10:39:18</property>
    <property name="astream">0</property>
    <property name="shotcut:skipConvert">1</property>
    <property name="shotcut:bins">Soundeffects</property>
    <property name="xml">was here</property>
    <property name="shotcut:hash">2e34491803e59ec8067485689c9c29e3</property>
    <property name="shotcut:caption">click-tap-computer-mouse-352734.mp3</property>
  </chain>
  <chain id="chain53" out="00:00:00.633">
    <property name="length">00:00:00.650</property>
    <property name="eof">pause</property>
    <property name="resource">/home/kactuz/Documents/Github/Projekt-Systemutveckling/Shotcut - Trailer/Assets/Soundeffect/click-tap-computer-mouse-352734.mp3</property>
    <property name="mlt_service">avformat-novalidate</property>
    <property name="meta.media.nb_streams">1</property>
    <property name="meta.media.0.stream.type">audio</property>
    <property name="meta.media.0.codec.sample_fmt">fltp</property>
    <property name="meta.media.0.codec.sample_rate">48000</property>
    <property name="meta.media.0.codec.channels">2</property>
    <property name="meta.media.0.codec.layout">stereo</property>
    <property name="meta.media.0.codec.name">mp3float</property>
    <property name="meta.media.0.codec.long_name">MP3 (MPEG audio layer 3)</property>
    <property name="meta.media.0.codec.bit_rate">256000</property>
    <property name="seekable">1</property>
    <property name="audio_index">0</property>
    <property name="video_index">-1</property>
    <property name="creation_time">2025-06-02T10:39:18</property>
    <property name="astream">0</property>
    <property name="shotcut:skipConvert">1</property>
    <property name="shotcut:bins">Soundeffects</property>
    <property name="xml">was here</property>
    <property name="shotcut:hash">2e34491803e59ec8067485689c9c29e3</property>
    <property name="shotcut:caption">click-tap-computer-mouse-352734.mp3</property>
  </chain>
  <chain id="chain54" out="00:00:00.633">
    <property name="length">00:00:00.650</property>
    <property name="eof">pause</property>
    <property name="resource">/home/kactuz/Documents/Github/Projekt-Systemutveckling/Shotcut - Trailer/Assets/Soundeffect/click-tap-computer-mouse-352734.mp3</property>
    <property name="mlt_service">avformat-novalidate</property>
    <property name="meta.media.nb_streams">1</property>
    <property name="meta.media.0.stream.type">audio</property>
    <property name="meta.media.0.codec.sample_fmt">fltp</property>
    <property name="meta.media.0.codec.sample_rate">48000</property>
    <property name="meta.media.0.codec.channels">2</property>
    <property name="meta.media.0.codec.layout">stereo</property>
    <property name="meta.media.0.codec.name">mp3float</property>
    <property name="meta.media.0.codec.long_name">MP3 (MPEG audio layer 3)</property>
    <property name="meta.media.0.codec.bit_rate">256000</property>
    <property name="seekable">1</property>
    <property name="audio_index">0</property>
    <property name="video_index">-1</property>
    <property name="creation_time">2025-06-02T10:39:18</property>
    <property name="astream">0</property>
    <property name="shotcut:skipConvert">1</property>
    <property name="shotcut:bins">Soundeffects</property>
    <property name="xml">was here</property>
    <property name="shotcut:hash">2e34491803e59ec8067485689c9c29e3</property>
    <property name="shotcut:caption">click-tap-computer-mouse-352734.mp3</property>
  </chain>
  <chain id="chain55" out="00:00:00.633">
    <property name="length">00:00:00.650</property>
    <property name="eof">pause</property>
    <property name="resource">/home/kactuz/Documents/Github/Projekt-Systemutveckling/Shotcut - Trailer/Assets/Soundeffect/click-tap-computer-mouse-352734.mp3</property>
    <property name="mlt_service">avformat-novalidate</property>
    <property name="meta.media.nb_streams">1</property>
    <property name="meta.media.0.stream.type">audio</property>
    <property name="meta.media.0.codec.sample_fmt">fltp</property>
    <property name="meta.media.0.codec.sample_rate">48000</property>
    <property name="meta.media.0.codec.channels">2</property>
    <property name="meta.media.0.codec.layout">stereo</property>
    <property name="meta.media.0.codec.name">mp3float</property>
    <property name="meta.media.0.codec.long_name">MP3 (MPEG audio layer 3)</property>
    <property name="meta.media.0.codec.bit_rate">256000</property>
    <property name="seekable">1</property>
    <property name="audio_index">0</property>
    <property name="video_index">-1</property>
    <property name="creation_time">2025-06-02T10:39:18</property>
    <property name="astream">0</property>
    <property name="shotcut:skipConvert">1</property>
    <property name="shotcut:bins">Soundeffects</property>
    <property name="xml">was here</property>
    <property name="shotcut:hash">2e34491803e59ec8067485689c9c29e3</property>
    <property name="shotcut:caption">click-tap-computer-mouse-352734.mp3</property>
  </chain>
  <chain id="chain56" out="00:00:00.633">
    <property name="length">00:00:00.650</property>
    <property name="eof">pause</property>
    <property name="resource">/home/kactuz/Documents/Github/Projekt-Systemutveckling/Shotcut - Trailer/Assets/Soundeffect/click-tap-computer-mouse-352734.mp3</property>
    <property name="mlt_service">avformat-novalidate</property>
    <property name="meta.media.nb_streams">1</property>
    <property name="meta.media.0.stream.type">audio</property>
    <property name="meta.media.0.codec.sample_fmt">fltp</property>
    <property name="meta.media.0.codec.sample_rate">48000</property>
    <property name="meta.media.0.codec.channels">2</property>
    <property name="meta.media.0.codec.layout">stereo</property>
    <property name="meta.media.0.codec.name">mp3float</property>
    <property name="meta.media.0.codec.long_name">MP3 (MPEG audio layer 3)</property>
    <property name="meta.media.0.codec.bit_rate">256000</property>
    <property name="seekable">1</property>
    <property name="audio_index">0</property>
    <property name="video_index">-1</property>
    <property name="creation_time">2025-06-02T10:39:18</property>
    <property name="astream">0</property>
    <property name="shotcut:skipConvert">1</property>
    <property name="shotcut:bins">Soundeffects</property>
    <property name="xml">was here</property>
    <property name="shotcut:hash">2e34491803e59ec8067485689c9c29e3</property>
    <property name="shotcut:caption">click-tap-computer-mouse-352734.mp3</property>
  </chain>
  <chain id="chain57" out="00:00:00.633">
    <property name="length">00:00:00.650</property>
    <property name="eof">pause</property>
    <property name="resource">/home/kactuz/Documents/Github/Projekt-Systemutveckling/Shotcut - Trailer/Assets/Soundeffect/click-tap-computer-mouse-352734.mp3</property>
    <property name="mlt_service">avformat-novalidate</property>
    <property name="meta.media.nb_streams">1</property>
    <property name="meta.media.0.stream.type">audio</property>
    <property name="meta.media.0.codec.sample_fmt">fltp</property>
    <property name="meta.media.0.codec.sample_rate">48000</property>
    <property name="meta.media.0.codec.channels">2</property>
    <property name="meta.media.0.codec.layout">stereo</property>
    <property name="meta.media.0.codec.name">mp3float</property>
    <property name="meta.media.0.codec.long_name">MP3 (MPEG audio layer 3)</property>
    <property name="meta.media.0.codec.bit_rate">256000</property>
    <property name="seekable">1</property>
    <property name="audio_index">0</property>
    <property name="video_index">-1</property>
    <property name="creation_time">2025-06-02T10:39:18</property>
    <property name="astream">0</property>
    <property name="shotcut:skipConvert">1</property>
    <property name="shotcut:bins">Soundeffects</property>
    <property name="xml">was here</property>
    <property name="shotcut:hash">2e34491803e59ec8067485689c9c29e3</property>
    <property name="shotcut:caption">click-tap-computer-mouse-352734.mp3</property>
  </chain>
  <chain id="chain58" out="00:00:00.633">
    <property name="length">00:00:00.650</property>
    <property name="eof">pause</property>
    <property name="resource">/home/kactuz/Documents/Github/Projekt-Systemutveckling/Shotcut - Trailer/Assets/Soundeffect/click-tap-computer-mouse-352734.mp3</property>
    <property name="mlt_service">avformat-novalidate</property>
    <property name="meta.media.nb_streams">1</property>
    <property name="meta.media.0.stream.type">audio</property>
    <property name="meta.media.0.codec.sample_fmt">fltp</property>
    <property name="meta.media.0.codec.sample_rate">48000</property>
    <property name="meta.media.0.codec.channels">2</property>
    <property name="meta.media.0.codec.layout">stereo</property>
    <property name="meta.media.0.codec.name">mp3float</property>
    <property name="meta.media.0.codec.long_name">MP3 (MPEG audio layer 3)</property>
    <property name="meta.media.0.codec.bit_rate">256000</property>
    <property name="seekable">1</property>
    <property name="audio_index">0</property>
    <property name="video_index">-1</property>
    <property name="creation_time">2025-06-02T10:39:18</property>
    <property name="astream">0</property>
    <property name="shotcut:skipConvert">1</property>
    <property name="shotcut:bins">Soundeffects</property>
    <property name="xml">was here</property>
    <property name="shotcut:hash">2e34491803e59ec8067485689c9c29e3</property>
    <property name="shotcut:caption">click-tap-computer-mouse-352734.mp3</property>
  </chain>
  <chain id="chain59" out="00:00:00.633">
    <property name="length">00:00:00.650</property>
    <property name="eof">pause</property>
    <property name="resource">/home/kactuz/Documents/Github/Projekt-Systemutveckling/Shotcut - Trailer/Assets/Soundeffect/click-tap-computer-mouse-352734.mp3</property>
    <property name="mlt_service">avformat-novalidate</property>
    <property name="meta.media.nb_streams">1</property>
    <property name="meta.media.0.stream.type">audio</property>
    <property name="meta.media.0.codec.sample_fmt">fltp</property>
    <property name="meta.media.0.codec.sample_rate">48000</property>
    <property name="meta.media.0.codec.channels">2</property>
    <property name="meta.media.0.codec.layout">stereo</property>
    <property name="meta.media.0.codec.name">mp3float</property>
    <property name="meta.media.0.codec.long_name">MP3 (MPEG audio layer 3)</property>
    <property name="meta.media.0.codec.bit_rate">256000</property>
    <property name="seekable">1</property>
    <property name="audio_index">0</property>
    <property name="video_index">-1</property>
    <property name="creation_time">2025-06-02T10:39:18</property>
    <property name="astream">0</property>
    <property name="shotcut:skipConvert">1</property>
    <property name="shotcut:bins">Soundeffects</property>
    <property name="xml">was here</property>
    <property name="shotcut:hash">2e34491803e59ec8067485689c9c29e3</property>
    <property name="shotcut:caption">click-tap-computer-mouse-352734.mp3</property>
  </chain>
  <chain id="chain60" out="00:00:00.633">
    <property name="length">00:00:00.650</property>
    <property name="eof">pause</property>
    <property name="resource">/home/kactuz/Documents/Github/Projekt-Systemutveckling/Shotcut - Trailer/Assets/Soundeffect/click-tap-computer-mouse-352734.mp3</property>
    <property name="mlt_service">avformat-novalidate</property>
    <property name="meta.media.nb_streams">1</property>
    <property name="meta.media.0.stream.type">audio</property>
    <property name="meta.media.0.codec.sample_fmt">fltp</property>
    <property name="meta.media.0.codec.sample_rate">48000</property>
    <property name="meta.media.0.codec.channels">2</property>
    <property name="meta.media.0.codec.layout">stereo</property>
    <property name="meta.media.0.codec.name">mp3float</property>
    <property name="meta.media.0.codec.long_name">MP3 (MPEG audio layer 3)</property>
    <property name="meta.media.0.codec.bit_rate">256000</property>
    <property name="seekable">1</property>
    <property name="audio_index">0</property>
    <property name="video_index">-1</property>
    <property name="creation_time">2025-06-02T10:39:18</property>
    <property name="astream">0</property>
    <property name="shotcut:skipConvert">1</property>
    <property name="shotcut:bins">Soundeffects</property>
    <property name="xml">was here</property>
    <property name="shotcut:hash">2e34491803e59ec8067485689c9c29e3</property>
    <property name="shotcut:caption">click-tap-computer-mouse-352734.mp3</property>
  </chain>
  <chain id="chain61" out="00:00:00.633">
    <property name="length">00:00:00.650</property>
    <property name="eof">pause</property>
    <property name="resource">/home/kactuz/Documents/Github/Projekt-Systemutveckling/Shotcut - Trailer/Assets/Soundeffect/click-tap-computer-mouse-352734.mp3</property>
    <property name="mlt_service">avformat-novalidate</property>
    <property name="meta.media.nb_streams">1</property>
    <property name="meta.media.0.stream.type">audio</property>
    <property name="meta.media.0.codec.sample_fmt">fltp</property>
    <property name="meta.media.0.codec.sample_rate">48000</property>
    <property name="meta.media.0.codec.channels">2</property>
    <property name="meta.media.0.codec.layout">stereo</property>
    <property name="meta.media.0.codec.name">mp3float</property>
    <property name="meta.media.0.codec.long_name">MP3 (MPEG audio layer 3)</property>
    <property name="meta.media.0.codec.bit_rate">256000</property>
    <property name="seekable">1</property>
    <property name="audio_index">0</property>
    <property name="video_index">-1</property>
    <property name="creation_time">2025-06-02T10:39:18</property>
    <property name="astream">0</property>
    <property name="shotcut:skipConvert">1</property>
    <property name="shotcut:bins">Soundeffects</property>
    <property name="xml">was here</property>
    <property name="shotcut:hash">2e34491803e59ec8067485689c9c29e3</property>
    <property name="shotcut:caption">click-tap-computer-mouse-352734.mp3</property>
  </chain>
  <playlist id="playlist6">
    <property name="shotcut:audio">1</property>
    <property name="shotcut:name">A4</property>
    <blank length="00:00:06.017"/>
    <entry producer="chain50" in="00:00:00.000" out="00:00:02.067"/>
    <blank length="00:00:23.083"/>
    <entry producer="chain51" in="00:00:00.117" out="00:00:00.233"/>
    <blank length="00:00:01.800"/>
    <entry producer="chain52" in="00:00:00.117" out="00:00:00.233"/>
    <blank length="00:00:01.133"/>
    <entry producer="chain53" in="00:00:00.117" out="00:00:00.233"/>
    <blank length="00:00:05.900"/>
    <entry producer="chain54" in="00:00:00.117" out="00:00:00.233"/>
    <blank length="00:00:00.517"/>
    <entry producer="chain55" in="00:00:00.117" out="00:00:00.233"/>
    <blank length="00:00:01.250"/>
    <entry producer="chain56" in="00:00:00.117" out="00:00:00.233"/>
    <blank length="00:00:00.683"/>
    <entry producer="chain57" in="00:00:00.117" out="00:00:00.233"/>
    <blank length="00:00:01.433"/>
    <entry producer="chain58" in="00:00:00.117" out="00:00:00.233"/>
    <blank length="00:00:00.417"/>
    <entry producer="chain59" in="00:00:00.117" out="00:00:00.233"/>
    <blank length="00:00:00.733"/>
    <entry producer="chain60" in="00:00:00.117" out="00:00:00.233"/>
    <blank length="00:00:38.283"/>
    <entry producer="chain61" in="00:00:00.117" out="00:00:00.233"/>
  </playlist>
  <chain id="chain62" out="00:02:36.533">
    <property name="length">00:02:36.550</property>
    <property name="eof">pause</property>
    <property name="resource">/home/kactuz/Documents/Github/Projekt-Systemutveckling/Shotcut - Trailer/Assets/Soundeffect/early-morning-sound-in-village-345750.mp3</property>
    <property name="mlt_service">avformat-novalidate</property>
    <property name="meta.media.nb_streams">1</property>
    <property name="meta.media.0.stream.type">audio</property>
    <property name="meta.media.0.codec.sample_fmt">fltp</property>
    <property name="meta.media.0.codec.sample_rate">44100</property>
    <property name="meta.media.0.codec.channels">1</property>
    <property name="meta.media.0.codec.layout">mono</property>
    <property name="meta.media.0.codec.name">mp3float</property>
    <property name="meta.media.0.codec.long_name">MP3 (MPEG audio layer 3)</property>
    <property name="meta.media.0.codec.bit_rate">256000</property>
    <property name="seekable">1</property>
    <property name="audio_index">0</property>
    <property name="video_index">-1</property>
    <property name="creation_time">2025-06-02T10:43:47</property>
    <property name="astream">0</property>
    <property name="shotcut:skipConvert">1</property>
    <property name="shotcut:bins">Soundeffects</property>
    <property name="xml">was here</property>
    <property name="shotcut:hash">a4ca55bdb39f6959ac367894400192fb</property>
    <property name="shotcut:caption">early-morning-sound-in-village-345750.mp3</property>
  </chain>
  <playlist id="playlist7">
    <property name="shotcut:audio">1</property>
    <property name="shotcut:name">A5</property>
    <blank length="00:00:02.467"/>
    <entry producer="chain62" in="00:00:00.000" out="00:00:03.650"/>
  </playlist>
  <tractor id="tractor0" title="Shotcut version 25.05.11" in="00:00:00.000" out="00:01:28.650">
    <property name="shotcut">1</property>
    <property name="shotcut:projectAudioChannels">2</property>
    <property name="shotcut:projectFolder">1</property>
    <property name="shotcut:scaleFactor">0.833975</property>
    <property name="shotcut:trackHeight">34</property>
    <properties name="shotcut:markers"/>
    <property name="shotcut:trackHeaderWidth">150</property>
    <track producer="background"/>
    <track producer="playlist0"/>
    <track producer="playlist1" hide="video"/>
    <track producer="playlist2" hide="video"/>
    <track producer="playlist3"/>
    <track producer="playlist4"/>
    <track producer="playlist5" hide="video"/>
    <track producer="playlist6" hide="video"/>
    <track producer="playlist7" hide="video"/>
    <transition id="transition0">
      <property name="a_track">0</property>
      <property name="b_track">1</property>
      <property name="mlt_service">mix</property>
      <property name="always_active">1</property>
      <property name="sum">1</property>
    </transition>
    <transition id="transition1">
      <property name="a_track">0</property>
      <property name="b_track">1</property>
      <property name="version">0.1</property>
      <property name="mlt_service">frei0r.cairoblend</property>
      <property name="threads">0</property>
      <property name="disable">1</property>
    </transition>
    <transition id="transition2">
      <property name="a_track">0</property>
      <property name="b_track">2</property>
      <property name="mlt_service">mix</property>
      <property name="always_active">1</property>
      <property name="sum">1</property>
    </transition>
    <transition id="transition3">
      <property name="a_track">0</property>
      <property name="b_track">3</property>
      <property name="mlt_service">mix</property>
      <property name="always_active">1</property>
      <property name="sum">1</property>
    </transition>
    <transition id="transition4">
      <property name="a_track">0</property>
      <property name="b_track">4</property>
      <property name="mlt_service">mix</property>
      <property name="always_active">1</property>
      <property name="sum">1</property>
    </transition>
    <transition id="transition5">
      <property name="a_track">1</property>
      <property name="b_track">4</property>
      <property name="version">0.1</property>
      <property name="mlt_service">frei0r.cairoblend</property>
      <property name="threads">0</property>
      <property name="disable">0</property>
    </transition>
    <transition id="transition6">
      <property name="a_track">0</property>
      <property name="b_track">5</property>
      <property name="mlt_service">mix</property>
      <property name="always_active">1</property>
      <property name="sum">1</property>
    </transition>
    <transition id="transition7">
      <property name="a_track">1</property>
      <property name="b_track">5</property>
      <property name="version">0.1</property>
      <property name="mlt_service">frei0r.cairoblend</property>
      <property name="threads">0</property>
      <property name="disable">0</property>
    </transition>
    <transition id="transition8">
      <property name="a_track">0</property>
      <property name="b_track">6</property>
      <property name="mlt_service">mix</property>
      <property name="always_active">1</property>
      <property name="sum">1</property>
    </transition>
    <transition id="transition9">
      <property name="a_track">0</property>
      <property name="b_track">7</property>
      <property name="mlt_service">mix</property>
      <property name="always_active">1</property>
      <property name="sum">1</property>
    </transition>
    <transition id="transition10">
      <property name="a_track">0</property>
      <property name="b_track">8</property>
      <property name="mlt_service">mix</property>
      <property name="always_active">1</property>
      <property name="sum">1</property>
    </transition>
  </tractor>
</mlt>
